<svg width="392" height="392" viewBox="0 0 392 392" fill="none" xmlns="http://www.w3.org/2000/svg">
<path d="M208.018 114.323C208.018 114.323 205.149 116.914 205.436 119.506C205.723 122.098 230.107 168.497 232.689 171.866C235.271 175.235 242.729 176.271 246.183 174.457C249.636 172.643 263.108 159.685 263.108 159.685L262.435 93.2415C262.435 93.2415 250.486 124.141 247.043 129.125C243.601 134.109 241.869 136.65 241.869 136.65C241.869 136.65 234.145 116.944 232.115 113.057C230.694 110.555 228.502 108.478 225.804 107.076L208.018 114.323Z" fill="#AEB791" stroke="#263238" stroke-linecap="round" stroke-linejoin="round"/>
<path d="M268.382 373.411C268.382 373.411 251.159 379.291 244.649 381.385C238.139 383.478 238.525 388.651 239.287 389.688L240.059 390.684H301.693C302.606 387.731 302.471 384.594 301.307 381.714C299.398 376.55 268.382 373.411 268.382 373.411Z" fill="#283618" stroke="#263238" stroke-linecap="round" stroke-linejoin="round"/>
<path d="M302.278 387.963H238.89C238.852 388.563 238.989 389.161 239.287 389.698L240.059 390.694H301.693C302.011 389.809 302.207 388.892 302.278 387.963V387.963Z" fill="white" stroke="#263238" stroke-linecap="round" stroke-linejoin="round"/>
<path d="M255.363 183.568C255.363 183.568 251.159 221.265 251.159 240.632C251.159 259.999 258.816 298.394 261.089 310.156C263.362 321.918 271.02 358.918 271.02 361.679C271.02 364.44 271.019 367.908 268.725 369.294C267.952 369.723 267.328 370.339 266.923 371.072C266.517 371.804 266.346 372.625 266.43 373.44V375.514C266.43 375.514 284.801 383.817 292.844 384.166C296.41 384.421 299.992 384.421 303.558 384.166C303.558 384.166 302.796 368.596 302.796 362.028C302.796 355.459 303.183 308.422 303.558 301.155C303.933 293.889 305.478 241.669 307.011 227.146C308.545 212.623 313.135 187.724 313.135 187.724L256.863 179.421L255.363 183.568Z" fill="#606C38" stroke="#263238" stroke-linecap="round" stroke-linejoin="round"/>
<path d="M309.35 373.411C309.35 373.411 292.116 379.291 285.617 381.385C279.118 383.478 279.482 388.651 280.255 389.688L281.016 390.684H342.65C343.563 387.732 343.432 384.595 342.275 381.714C340.355 376.55 309.35 373.411 309.35 373.411Z" fill="#283618" stroke="#263238" stroke-linecap="round" stroke-linejoin="round"/>
<path d="M343.19 387.963H279.846C279.817 388.563 279.957 389.16 280.255 389.698L281.016 390.694H342.65C342.959 389.809 343.141 388.891 343.19 387.963V387.963Z" fill="white" stroke="#263238" stroke-linecap="round" stroke-linejoin="round"/>
<path d="M288.287 188.063C288.287 188.063 288.673 240.981 288.287 256.54C287.901 272.1 298.217 311.532 301.307 320.871C304.396 330.211 309.725 366.523 310.134 368.257C310.542 369.992 304.396 371.716 304.396 375.514C304.396 379.311 321.233 379.321 321.233 379.321C321.233 379.321 336.934 383.468 338.468 383.468C340.041 383.641 341.583 383.993 343.058 384.514C344.598 379.67 345.498 374.678 345.739 369.643C345.804 363.904 344.9 358.19 343.058 352.698C343.058 352.698 344.978 322.267 343.444 304.285C341.91 286.304 337.696 264.515 337.696 257.936C337.696 251.357 341.91 239.267 343.83 225.771C345.75 212.274 346.5 192.568 346.5 188.422C346.5 184.275 289.126 183.239 289.126 183.239L288.287 188.063Z" fill="#606C38" stroke="#263238" stroke-linecap="round" stroke-linejoin="round"/>
<path d="M302.84 80.5128C302.84 80.5128 274.506 85.0082 269.53 85.696C264.554 86.3838 261.453 93.3212 260.35 99.1822C259.247 105.043 252.693 181.495 255.363 183.568C258.033 185.641 330.016 192.539 338.06 192.907C346.103 193.276 348.784 193.605 349.546 188.412C350.307 183.219 362.003 108.99 364.209 102.222C368.027 90.4705 333.47 84.2806 325.426 82.5861C317.383 80.8916 302.84 80.5128 302.84 80.5128Z" fill="#AEB791" stroke="#263238" stroke-linecap="round" stroke-linejoin="round"/>
<path d="M340.895 86.1944C340.895 86.1944 326.938 124.071 324.643 129.623C322.348 135.175 322.337 136.531 322.337 136.531L275.256 127.56C275.256 127.56 280.233 106.12 282.141 100.239C284.05 94.3578 288.618 82.7655 288.618 82.7655L285.209 83.2938C285.209 83.2938 274.109 115.459 271.428 124.101C268.747 132.743 256.135 160.403 255.363 169.075C254.59 177.747 250.773 209.882 249.625 231.332C248.478 252.783 250.011 275.25 250.011 275.25C250.011 275.25 294.797 282.855 308.203 282.516C321.609 282.177 330.016 282.167 330.016 282.167C330.016 282.167 328.913 241.011 330.402 227.874C331.892 214.736 336.912 190.515 336.912 190.515L349.16 189.827L349.546 188.442L334.617 187.445C334.617 187.445 326.552 139.651 326.552 137.916V135.185L343.444 87.1513L340.895 86.1944Z" fill="#283618" stroke="#263238" stroke-linecap="round" stroke-linejoin="round"/>
<path d="M358.792 219.242C358.792 219.242 349.965 230.655 349.314 232.559C348.663 234.462 350.715 242.397 350.715 244.928C350.715 247.46 354.224 247.47 354.224 247.47C354.224 247.47 352.47 251.587 354.577 253.181C356.684 254.776 365.809 254.447 367.564 251.587C369.318 248.726 376.391 238.908 376.391 234.143C376.19 230.194 375.603 226.268 374.636 222.412L358.792 219.242Z" fill="#FFB79A" stroke="#263238" stroke-linecap="round" stroke-linejoin="round"/>
<path d="M354.224 247.47C354.224 247.47 357.038 245.247 357.038 242.396C357.038 239.546 359.84 234.781 359.84 234.781" stroke="#263238" stroke-linecap="round" stroke-linejoin="round"/>
<path d="M359.498 211.936C359.145 212.882 356.685 219.551 358.792 221.455C360.899 223.358 373.886 225.252 375.287 223.986C376.688 222.72 379.149 215.424 379.149 215.424L359.498 211.936Z" fill="#AEB791" stroke="#263238" stroke-linecap="round" stroke-linejoin="round"/>
<path d="M344.393 138.365L358.439 167.54C358.439 167.54 353.871 209.095 356.331 212.583C358.792 216.072 378.807 217.657 382.316 215.434C385.824 213.211 388.285 205.287 389.686 191.014C391.087 176.74 383.364 136.78 381.256 130.112C379.149 123.443 365.169 96.8098 361.948 94.597C358.726 92.3842 352.823 93.0022 351.068 93.6003" fill="#AEB791"/>
<path d="M344.393 138.365L358.439 167.54C358.439 167.54 353.871 209.095 356.331 212.583C358.792 216.072 378.807 217.657 382.316 215.434C385.824 213.211 388.285 205.287 389.686 191.014C391.087 176.74 383.364 136.78 381.256 130.112C379.149 123.443 365.169 96.8098 361.948 94.597C358.726 92.3842 352.823 93.0022 351.068 93.6003" stroke="#263238" stroke-linecap="round" stroke-linejoin="round"/>
<path d="M220.463 100.298C220.463 100.298 217.297 88.8856 214.494 84.44C211.692 79.9945 193.078 73.9741 190.971 73.9741C188.863 73.9741 189.569 78.1006 189.569 81.9481C189.569 85.7956 190.264 92.4141 194.832 96.8497C199.4 101.285 207.466 104.465 207.466 104.465L209.926 109.857L222.571 103.827L220.463 100.298Z" fill="#FFB79A" stroke="#263238" stroke-linecap="round" stroke-linejoin="round"/>
<path d="M213.181 69.7379L213.843 67.0865C214.019 66.3879 214.036 65.6645 213.894 64.9597C213.753 64.2549 213.455 63.5832 213.019 62.9847C212.584 62.3863 212.019 61.8735 211.358 61.477C210.698 61.0805 209.956 60.8085 209.176 60.6774V60.6774C207.866 60.4554 206.511 60.6398 205.331 61.2006C204.152 61.7615 203.216 62.666 202.677 63.7673L175.877 118.729" stroke="#263238" stroke-linecap="round" stroke-linejoin="round"/>
<path d="M148.072 114.841C148.216 118.151 149.773 121.281 152.417 123.577C155.06 125.872 158.584 127.154 162.25 127.154C165.916 127.154 169.44 125.872 172.084 123.577C174.727 121.281 176.284 118.151 176.428 114.841H148.072Z" fill="#DDA15E" stroke="#263238" stroke-linecap="round" stroke-linejoin="round"/>
<path d="M152.662 98.4047C152.805 97.3999 153.075 96.4133 153.467 95.4642" stroke="#263238" stroke-linecap="round" stroke-linejoin="round"/>
<path d="M152.221 112.499C154.637 111.432 155.795 107.704 154.791 105.701C154.091 104.409 153.482 103.077 152.971 101.714" stroke="#263238" stroke-linecap="round" stroke-linejoin="round"/>
<path d="M160.904 112.499C163.331 111.432 164.479 107.704 163.486 105.701C162.261 103.259 161.412 101.624 161.279 99.8101" stroke="#263238" stroke-linecap="round" stroke-linejoin="round"/>
<path d="M170.073 97.7967C170.234 97.0023 170.47 96.222 170.779 95.4642" stroke="#263238" stroke-linecap="round" stroke-linejoin="round"/>
<path d="M169.565 112.499C171.982 111.432 173.14 107.704 172.136 105.701C171.484 104.486 170.909 103.238 170.415 101.963" stroke="#263238" stroke-linecap="round" stroke-linejoin="round"/>
<path d="M193.773 73.9741C193.773 73.9741 184.648 72.0703 183.953 73.6551C183.258 75.24 183.247 78.4196 184.648 79.3665C186.05 80.3135 195.539 80.6324 196.587 80.3633C197.635 80.0942 200.106 74.5422 193.773 73.9741Z" fill="#FFB79A" stroke="#263238" stroke-linecap="round" stroke-linejoin="round"/>
<path d="M196.046 81.5295C196.046 81.5295 186.921 79.6257 186.215 81.2205C185.509 82.8154 185.509 85.9751 186.921 86.922C188.334 87.8689 197.8 88.1979 198.86 87.9188C199.919 87.6397 202.379 82.0977 196.046 81.5295Z" fill="#FFB79A" stroke="#263238" stroke-linecap="round" stroke-linejoin="round"/>
<path d="M196.907 88.0184C196.907 88.0184 187.55 87.54 187.153 89.2146C186.756 90.8891 187.352 94.009 188.918 94.7366C190.485 95.4642 199.886 94.318 200.857 93.8395C201.828 93.3611 203.251 87.6098 196.907 88.0184Z" fill="#FFB79A" stroke="#263238" stroke-linecap="round" stroke-linejoin="round"/>
<path d="M198.076 94.7964C198.076 94.7964 190.353 94.3977 190.033 95.7931C189.713 97.1886 190.198 99.7802 191.489 100.358C192.78 100.936 200.548 100.009 201.353 99.6207C202.159 99.232 203.317 94.4475 198.076 94.7964Z" fill="#FFB79A" stroke="#263238" stroke-linecap="round" stroke-linejoin="round"/>
<path d="M217.65 93.3212C217.65 93.3212 215.189 80.9514 213.788 78.7386C212.387 76.5258 199.742 70.4855 197.238 69.2196C194.733 67.9537 190.617 66.3688 189.856 68.5816C189.533 69.5994 189.6 70.686 190.047 71.6649C190.494 72.6439 191.293 73.4576 192.317 73.9741C194.424 75.25 199.687 77.1438 199.687 78.1007C199.687 79.0576 202.501 89.5136 208.514 93.3212" fill="#FFB79A"/>
<path d="M217.65 93.3212C217.65 93.3212 215.189 80.9514 213.788 78.7386C212.387 76.5258 199.742 70.4855 197.238 69.2196C194.733 67.9537 190.617 66.3688 189.856 68.5816C189.533 69.5994 189.6 70.686 190.047 71.6649C190.494 72.6439 191.293 73.4576 192.317 73.9741C194.424 75.25 199.687 77.1438 199.687 78.1007C199.687 79.0576 202.501 89.5136 208.514 93.3212" stroke="#263238" stroke-linecap="round" stroke-linejoin="round"/>
<path d="M221.787 100.588C221.787 100.588 204.288 108.621 205.436 110.695C206.257 112.437 206.835 114.265 207.157 116.137C207.157 116.137 225.517 108.621 225.804 107.067C226.091 105.512 223.796 101.624 221.787 100.588Z" fill="#AEB791" stroke="#263238" stroke-linecap="round" stroke-linejoin="round"/>
<path d="M296.331 71.1732C296.331 71.1732 294.422 86.7326 294.422 93.3013C294.422 99.8699 296.761 111.263 311.259 106.797C325.757 102.332 330.016 86.0449 330.016 82.8752C330.016 79.7055 331.55 56.5906 331.55 56.5906C331.55 56.5906 321.211 66.628 312.793 69.0401C307.465 70.5332 301.908 71.2532 296.331 71.1732V71.1732Z" fill="#FFB79A" stroke="#263238" stroke-linecap="round" stroke-linejoin="round"/>
<path d="M312.793 69.09C307.462 70.5661 301.905 71.2693 296.331 71.1732C296.331 71.1732 296.011 73.8046 295.624 77.3531C299.365 79.1672 304.451 79.7354 308.346 79.9247C318.63 80.453 325.559 71.3925 331.042 64.5149C331.329 60.0992 331.55 56.6405 331.55 56.6405C331.55 56.6405 321.211 66.6778 312.793 69.09Z" fill="#263238" stroke="#263238" stroke-linecap="round" stroke-linejoin="round"/>
<path d="M292.469 21.9632C292.469 21.9632 296.938 9.5735 301.936 5.01831C306.934 0.46312 336.526 -0.244578 340.62 3.02479C344.713 6.29416 348.343 13.2814 349.259 19.0327C350.175 24.784 342.892 37.9712 342.892 37.9712L292.469 21.9632Z" fill="#283618" stroke="#263238" stroke-linecap="round" stroke-linejoin="round"/>
<path d="M291.354 29.3193C291.354 29.3193 287.912 38.6589 288.287 45.2675C288.662 51.876 290.207 58.4147 290.207 62.5612C290.207 66.7077 289.446 70.1765 293.649 73.2863C297.379 76.0374 303.712 76.775 308.346 77.0142C319.192 77.5624 326.309 67.4453 331.936 60.488C331.936 60.488 342.65 59.4912 343.422 53.9193C344.194 48.3474 342.44 45.8157 342.44 45.8157L342.892 38.011C342.892 38.011 307.055 22.0629 291.354 29.3193Z" fill="#FFB79A" stroke="#263238" stroke-linecap="round" stroke-linejoin="round"/>
<path d="M331.175 37.9711C331.175 37.9711 328.869 47.6497 330.402 48.3474C331.936 49.0451 339.98 46.2642 340.333 43.1543C340.686 40.0444 336.482 37.6223 331.175 37.9711Z" fill="#263238" stroke="#263238" stroke-linecap="round" stroke-linejoin="round"/>
<path d="M289.71 30.5852C289.71 30.5852 307.442 33.0472 321.531 37.1538C335.621 41.2605 342.44 45.7758 342.44 45.7758C342.44 45.7758 346.986 38.7985 346.534 35.1005C346.081 31.4025 326.552 24.8339 310.619 21.9632C294.687 19.0925 291.983 19.4912 290.626 21.1359C289.269 22.7805 287.438 28.9405 289.71 30.5852Z" fill="#283618" stroke="#263238" stroke-linecap="round" stroke-linejoin="round"/>
<path d="M302.454 38.3101C302.454 38.3101 292.888 52.4939 295.183 54.5672C297.478 56.6405 302.84 58.026 304.374 57.3382" stroke="#263238" stroke-linecap="round" stroke-linejoin="round"/>
<path d="M295.183 60.7969C295.183 60.7969 315.044 65.9801 319.303 56.3015" stroke="#263238" stroke-linecap="round" stroke-linejoin="round"/>
<path d="M316.235 54.9161L321.984 56.9893" stroke="#263238" stroke-linecap="round" stroke-linejoin="round"/>
<path d="M314.514 43.8421C315.465 43.8421 316.235 42.6818 316.235 41.2505C316.235 39.8192 315.465 38.6589 314.514 38.6589C313.563 38.6589 312.793 39.8192 312.793 41.2505C312.793 42.6818 313.563 43.8421 314.514 43.8421Z" fill="#263238"/>
<path d="M299.199 37.7917C299.199 39.2271 298.427 40.3933 297.478 40.3933C296.529 40.3933 295.757 39.2271 295.757 37.7917C295.757 36.3564 296.529 35.2002 297.478 35.2002C298.427 35.2002 299.199 36.3664 299.199 37.7917Z" fill="#263238"/>
<path d="M312.793 33.1269C312.793 33.1269 322.359 33.4758 321.984 40.3933" stroke="#263238" stroke-linecap="round" stroke-linejoin="round"/>
<path d="M300.159 31.0536C300.159 31.0536 297.864 29.6681 292.888 34.5124" stroke="#263238" stroke-linecap="round" stroke-linejoin="round"/>
<path d="M185.517 267.544H176.274V387.663H185.517V267.544Z" fill="#BC6C25" stroke="#263238" stroke-linecap="round" stroke-linejoin="round"/>
<path d="M191.918 267.544H182.674V387.663H191.918V267.544Z" fill="#263238" stroke="#263238" stroke-linecap="round" stroke-linejoin="round"/>
<path d="M229.597 267.544H220.354V387.663H229.597V267.544Z" fill="#BC6C25" stroke="#263238" stroke-linecap="round" stroke-linejoin="round"/>
<path d="M235.998 267.544H226.755V387.663H235.998V267.544Z" fill="#263238" stroke="#263238" stroke-linecap="round" stroke-linejoin="round"/>
<path d="M327.717 267.544H318.474V387.663H327.717V267.544Z" fill="#BC6C25" stroke="#263238" stroke-linecap="round" stroke-linejoin="round"/>
<path d="M334.118 267.544H324.875V387.663H334.118V267.544Z" fill="#263238" stroke="#263238" stroke-linecap="round" stroke-linejoin="round"/>
<path d="M371.807 267.544H362.564V387.663H371.807V267.544Z" fill="#BC6C25" stroke="#263238" stroke-linecap="round" stroke-linejoin="round"/>
<path d="M378.198 267.544H368.955V387.663H378.198V267.544Z" fill="#263238" stroke="#263238" stroke-linecap="round" stroke-linejoin="round"/>
<path d="M387.442 263.045H170.579V273.326H387.442V263.045Z" fill="#BC6C25" stroke="#263238" stroke-linecap="round" stroke-linejoin="round"/>
<path d="M387.451 263.045H328.433V273.326H387.451V263.045Z" fill="#263238" stroke="#263238" stroke-linecap="round" stroke-linejoin="round"/>
<path d="M391 260.477H163.472V265.613H391V260.477Z" fill="#BC6C25" stroke="#263238" stroke-linecap="round" stroke-linejoin="round"/>
<path d="M391 260.477H334.118V265.613H391V260.477Z" fill="#263238" stroke="#263238" stroke-linecap="round" stroke-linejoin="round"/>
<path d="M262.401 212.9H247.247V208.275H262.401C263.055 208.275 263.683 208.509 264.145 208.927C264.608 209.345 264.867 209.912 264.867 210.502V210.715C264.855 211.299 264.59 211.854 264.129 212.263C263.668 212.672 263.047 212.901 262.401 212.9V212.9Z" fill="#DDA15E" stroke="#263238" stroke-linecap="round" stroke-linejoin="round"/>
<path d="M184.576 199.074H256.113V253.564C256.113 255.368 255.32 257.098 253.908 258.374C252.496 259.65 250.58 260.367 248.583 260.367H192.106C190.109 260.367 188.193 259.65 186.781 258.374C185.369 257.098 184.576 255.368 184.576 253.564V199.074V199.074Z" fill="#DDA15E" stroke="#263238" stroke-linecap="round" stroke-linejoin="round"/>
<path d="M247.557 199.074V253.292C247.557 255.164 246.734 256.959 245.269 258.282C243.804 259.606 241.817 260.35 239.745 260.35H245.543C247.614 260.347 249.6 259.603 251.065 258.28C252.529 256.957 253.353 255.163 253.356 253.292V199.074H247.557Z" fill="#263238" stroke="#263238" stroke-linecap="round" stroke-linejoin="round"/>
<path d="M195.655 199.074V253.292C195.655 257.186 201.914 260.35 206.225 260.35H200.465C198.392 260.35 196.404 259.606 194.937 258.283C193.47 256.96 192.645 255.164 192.643 253.292V199.074H195.655Z" fill="#263238" stroke="#263238" stroke-linecap="round" stroke-linejoin="round"/>
<path d="M255.615 196.82H185.056C183.403 196.82 182.062 198.031 182.062 199.525V199.737C182.062 201.231 183.403 202.441 185.056 202.441H255.615C257.268 202.441 258.608 201.231 258.608 199.737V199.525C258.608 198.031 257.268 196.82 255.615 196.82Z" fill="#DDA15E" stroke="#263238" stroke-linecap="round" stroke-linejoin="round"/>
<path d="M175.709 208.275H190.864V212.9H175.709C175.055 212.9 174.427 212.666 173.965 212.248C173.502 211.83 173.243 211.263 173.243 210.673V210.46C173.255 209.876 173.52 209.321 173.981 208.912C174.443 208.503 175.063 208.274 175.709 208.275V208.275Z" fill="#DDA15E" stroke="#263238" stroke-linecap="round" stroke-linejoin="round"/>
<path d="M184.519 208.275H199.674V212.9H184.519C184.195 212.9 183.875 212.843 183.575 212.731C183.276 212.619 183.004 212.455 182.775 212.248C182.546 212.041 182.365 211.795 182.241 211.525C182.117 211.255 182.053 210.965 182.053 210.673V210.46C182.065 209.876 182.331 209.321 182.792 208.912C183.253 208.503 183.873 208.274 184.519 208.275V208.275Z" fill="#DDA15E" stroke="#263238" stroke-linecap="round" stroke-linejoin="round"/>
<path d="M255.888 200.46H184.773V201.327H255.888V200.46Z" fill="#263238" stroke="#263238" stroke-linecap="round" stroke-linejoin="round"/>
<path d="M221.437 177.96C220.072 176.455 218.471 175.196 218.471 172.254C218.424 170.708 218.995 169.198 220.081 168.002" stroke="#263238" stroke-linecap="round" stroke-linejoin="round"/>
<path d="M218.471 192.773C218.471 187.671 223.329 187.671 223.329 182.518C223.332 181.904 223.25 181.293 223.084 180.698" stroke="#263238" stroke-linecap="round" stroke-linejoin="round"/>
<path d="M235.97 173.674C235.614 172.804 235.441 171.881 235.462 170.953" stroke="#263238" stroke-linecap="round" stroke-linejoin="round"/>
<path d="M235.462 192.773C235.462 187.322 240.309 187.322 240.309 181.863C240.309 178.819 238.803 177.475 237.485 175.91" stroke="#263238" stroke-linecap="round" stroke-linejoin="round"/>
<path d="M199.062 173.104C198.96 172.608 198.909 172.104 198.912 171.599C198.895 170.73 199.055 169.866 199.382 169.048" stroke="#263238" stroke-linecap="round" stroke-linejoin="round"/>
<path d="M198.911 192.773C198.911 187.484 203.769 187.484 203.769 182.195C203.775 181.221 203.567 180.257 203.159 179.356C202.75 178.456 202.148 177.637 201.387 176.948" stroke="#263238" stroke-linecap="round" stroke-linejoin="round"/>
<path d="M360.314 212.9H345.159V208.275H360.314C360.968 208.275 361.595 208.509 362.058 208.927C362.52 209.345 362.78 209.912 362.78 210.502V210.715C362.768 211.299 362.503 211.854 362.041 212.263C361.58 212.672 360.96 212.901 360.314 212.9Z" fill="#DDA15E" stroke="#263238" stroke-linecap="round" stroke-linejoin="round"/>
<path d="M282.498 199.074H354.036V253.564C354.036 255.368 353.242 257.098 351.83 258.374C350.418 259.65 348.502 260.367 346.505 260.367H290.028C288.031 260.367 286.116 259.65 284.703 258.374C283.291 257.098 282.498 255.368 282.498 253.564V199.074Z" fill="#DDA15E" stroke="#263238" stroke-linecap="round" stroke-linejoin="round"/>
<path d="M345.479 199.074V253.292C345.477 255.164 344.652 256.96 343.185 258.283C341.718 259.606 339.73 260.35 337.657 260.35H343.437C345.509 260.35 347.496 259.606 348.961 258.282C350.426 256.959 351.249 255.164 351.249 253.292V199.074H345.479Z" fill="#263238" stroke="#263238" stroke-linecap="round" stroke-linejoin="round"/>
<path d="M293.549 199.074V253.292C293.549 257.186 299.799 260.35 304.119 260.35H298.349C296.278 260.347 294.292 259.603 292.827 258.28C291.363 256.957 290.539 255.163 290.536 253.292V199.074H293.549Z" fill="#263238" stroke="#263238" stroke-linecap="round" stroke-linejoin="round"/>
<path d="M353.527 196.82H282.968C281.315 196.82 279.975 198.031 279.975 199.525V199.737C279.975 201.231 281.315 202.441 282.968 202.441H353.527C355.18 202.441 356.521 201.231 356.521 199.737V199.525C356.521 198.031 355.18 196.82 353.527 196.82Z" fill="#DDA15E" stroke="#263238" stroke-linecap="round" stroke-linejoin="round"/>
<path d="M273.621 208.275H288.776V212.9H273.621C272.967 212.9 272.34 212.666 271.878 212.248C271.415 211.83 271.155 211.263 271.155 210.673V210.46C271.168 209.876 271.433 209.321 271.894 208.912C272.355 208.503 272.975 208.274 273.621 208.275V208.275Z" fill="#DDA15E" stroke="#263238" stroke-linecap="round" stroke-linejoin="round"/>
<path d="M282.432 208.275H297.587V212.9H282.432C281.778 212.9 281.151 212.666 280.688 212.248C280.226 211.83 279.966 211.263 279.966 210.673V210.46C279.978 209.876 280.243 209.321 280.705 208.912C281.166 208.503 281.786 208.274 282.432 208.275V208.275Z" fill="#DDA15E" stroke="#263238" stroke-linecap="round" stroke-linejoin="round"/>
<path d="M353.81 200.46H282.695V201.327H353.81V200.46Z" fill="#263238" stroke="#263238" stroke-linecap="round" stroke-linejoin="round"/>
<path d="M318.417 185.868H318.304C317.462 185.868 316.779 186.485 316.779 187.246V191.166C316.779 191.926 317.462 192.543 318.304 192.543H318.417C319.26 192.543 319.942 191.926 319.942 191.166V187.246C319.942 186.485 319.26 185.868 318.417 185.868Z" fill="#606C38" stroke="#263238" stroke-linecap="round" stroke-linejoin="round"/>
<path d="M283.081 196.854L286.131 194.933C289.734 192.653 294.026 191.43 298.424 191.429H338.523C344.074 191.429 349.409 193.374 353.405 196.854H283.081Z" fill="#606C38" stroke="#263238" stroke-linecap="round" stroke-linejoin="round"/>
<path d="M70.1784 107.525C70.1784 107.525 74.5555 114.581 76.4223 118.69C78.2892 122.799 80.7994 128.099 78.2997 126.918C75.8 125.737 73.3003 124.278 71.1171 124.278C68.9338 124.278 68.3115 126.63 67.3728 124.864C66.4341 123.097 70.1784 107.525 70.1784 107.525Z" fill="#606C38" stroke="#263238" stroke-linecap="round" stroke-linejoin="round"/>
<path d="M63.6286 360.831C63.6286 360.831 78.6161 369.059 84.2483 370.825C89.8805 372.592 93.6142 375.788 93.9201 379.053L94.2365 382.279L93.9201 384.631H25.5216C24.4815 382.202 23.9514 379.607 23.9606 376.989C23.9606 372.582 26.4603 371.699 27.7154 369.049C28.9705 366.399 58.9351 358.776 58.9351 358.776L63.6286 360.831Z" fill="#AEB791" stroke="#263238" stroke-linecap="round" stroke-linejoin="round"/>
<path d="M24.6146 381.961C24.8421 382.862 25.1454 383.745 25.5216 384.601H93.9096L94.226 382.249L93.9096 379.023C93.6037 375.788 89.8595 372.552 84.2378 370.796V381.961H24.6146Z" fill="white" stroke="#263238" stroke-linecap="round" stroke-linejoin="round"/>
<path d="M80.483 220.66C80.483 220.66 82.6768 224.183 80.7994 225.622C78.922 227.061 77.9833 227.687 77.9833 227.687C79.2825 230.146 79.6151 232.959 78.922 235.627C77.6775 239.746 72.0558 257.075 72.0558 265.303C72.0558 273.53 72.6781 293.807 69.2397 305.271C65.8013 316.734 58.9351 341.705 59.8738 347.293C60.8125 352.881 64.2509 355.521 64.8732 356.99C65.4037 358.808 65.6139 360.696 65.4955 362.578C65.4955 364.334 58.9351 372.274 48.0082 376.086C37.0813 379.897 27.9686 380.502 25.8591 379.907C23.7497 379.311 21.4926 375.798 21.7985 372.86C22.1043 369.922 23.0747 369.356 23.0747 367.292C23.0747 365.228 18.0753 345.258 18.6976 334.093C19.3199 322.927 29.3186 305.876 29.3186 297.648C29.3186 289.42 26.1545 275.029 23.697 266.503C21.2395 257.978 20.5328 256.221 20.5328 255.338C20.5328 254.455 17.0944 247.696 14.9112 242.108C12.7279 236.52 9.63757 231.24 9.63757 225.364C9.67912 221.432 9.99269 217.507 10.5763 213.613L13.3924 206.854C13.3924 206.854 78.0255 215.37 78.9642 215.37C79.9029 215.37 80.483 220.66 80.483 220.66Z" fill="#283618" stroke="#263238" stroke-linecap="round" stroke-linejoin="round"/>
<path d="M73.3062 198.376C73.3062 198.376 89.7914 190.625 92.4704 187.895C95.1494 185.166 92.4704 178.883 93.3564 178.883C94.2423 178.883 99.5897 176.789 100.043 174.913C100.497 173.037 99.5897 169.881 100.486 169.881C101.383 169.881 111.624 167.579 115.632 167.787C119.64 167.995 130.335 168.412 133.9 163.599C137.465 158.785 140.112 154.577 140.112 153.316C140.112 152.056 139.057 151.699 136.79 153.138C134.522 154.577 115.832 154.994 110.706 154.994C105.581 154.994 103.587 154.359 101.351 155.986C99.1151 157.614 90.6668 165.633 89.5488 165.633C88.4308 165.633 84.8764 165.216 82.8725 167.311C81.286 166.348 79.4064 165.905 77.525 166.05C74.8461 166.467 62.6008 172.759 62.6008 172.759L73.3062 198.376Z" fill="#FFB79A" stroke="#263238" stroke-linecap="round" stroke-linejoin="round"/>
<path d="M69.5562 120.159C69.8297 120.531 70.0832 120.915 70.3156 121.31C72.3433 124.784 73.6734 128.579 74.2391 132.506C75.4942 140.446 76.1165 155.135 78.9221 165.417C81.7276 175.7 92.0428 191.272 90.524 204.204C89.0052 217.136 84.9023 221.245 77.7197 221.543C70.537 221.841 20.2586 211.846 12.7701 209.792C5.28161 207.737 3.71008 208.909 4.33236 202.15C4.95465 195.391 12.7701 170.995 13.076 162.182C13.3818 153.368 6.51563 133.975 16.2401 119.871C25.9646 105.768 36.5435 96.3589 42.471 97.54C48.3985 98.7211 65.4955 109.877 69.5562 120.159Z" fill="#DDA15E" stroke="#263238" stroke-linecap="round" stroke-linejoin="round"/>
<path d="M55.1908 33.7718C55.1908 33.7718 66.1177 29.3651 74.8613 30.5362C83.605 31.7074 92.3486 38.1785 94.226 42.5852C96.1034 46.9919 97.6644 49.0464 97.6644 51.9842C97.6644 54.922 97.6644 55.8053 97.3479 56.6887L97.0421 57.572C97.0421 57.572 100.206 64.6287 100.47 66.971C100.734 69.3133 100.47 70.5043 98.2866 70.5043H96.1034C96.1034 70.5043 93.2873 88.1311 90.8298 90.1856C88.3723 92.2401 80.8416 92.5378 80.8416 92.5378C80.8416 92.5378 73.659 95.5153 72.098 104.885C70.537 114.254 68.6596 125.161 68.6596 125.161C68.6596 125.161 52.7333 97.8279 50.8665 91.9522C48.9996 86.0766 48.0504 81.9577 48.0504 81.9577C49.8348 79.1933 50.9176 76.0789 51.2146 72.8565C51.531 67.894 44.6542 57.2742 46.5316 47.2897C48.409 37.3051 55.1908 33.7718 55.1908 33.7718Z" fill="#FFB79A" stroke="#263238" stroke-linecap="round" stroke-linejoin="round"/>
<path d="M90.7876 90.1657C92.7283 88.5777 94.8483 77.6305 95.7131 72.787C93.6775 71.3281 84.1956 69.9187 80.483 71.6556C76.7704 73.3925 72.6781 76.36 72.0452 75.4767C71.4124 74.5934 68.4276 61.3832 70.5897 59.0409C72.7519 56.6986 78.0888 56.6787 76.8337 52.8576C75.5786 49.0365 70.1784 51.1108 69.8725 47.8951C69.5667 44.6794 73.0367 41.7217 68.9338 40.8483C66.1133 40.3799 63.2131 40.5812 60.4961 41.4339C59.5679 41.4339 57.6905 40.2528 57.6905 37.315C57.6917 36.5398 57.4125 35.7872 56.8988 35.1811C56.385 34.575 55.6674 34.1515 54.8639 33.9802C53.4822 34.8239 48.082 38.6152 46.4261 47.3095C44.5487 57.2941 51.4255 67.8742 51.1091 72.8764C50.8549 75.8381 49.9307 78.7145 48.3985 81.3126C49.842 81.9103 51.4547 82.0429 52.9865 81.6898C56.1506 80.8065 55.792 78.1664 56.7307 76.102C57.6694 74.0376 60.7914 73.4619 59.2304 69.6408C57.6694 65.8197 61.7301 61.7008 63.5969 61.9985C65.4638 62.2963 67.3517 65.2341 66.413 66.9611C65.4743 68.688 63.2489 77.2434 63.2489 81.6501C63.2489 86.0568 64.4935 89.8779 67.3096 91.3468C70.1257 92.8157 74.0281 94.1358 76.802 95.3168C77.9139 94.1858 79.232 93.2514 80.6939 92.5577C80.6939 92.5577 88.2985 92.25 90.7876 90.1657Z" fill="#263238" stroke="#263238" stroke-linecap="round" stroke-linejoin="round"/>
<path d="M91.7263 58.7432C91.7263 59.8845 91.3044 60.8076 90.7876 60.8076C90.2708 60.8076 89.8594 59.8845 89.8594 58.7432C89.8594 57.6018 90.2708 56.6887 90.7876 56.6887C91.3044 56.6887 91.7263 57.6117 91.7263 58.7432Z" fill="#263238"/>
<path d="M86.1047 53.4432C87.6961 52.6043 89.3705 51.9129 91.1041 51.3788C92.665 51.091 95.1647 52.2621 94.8483 49.9099C94.5319 47.5577 91.4205 48.441 87.6657 49.3243C83.9109 50.2076 83.9214 52.282 86.1047 53.4432Z" fill="white" stroke="#263238" stroke-linecap="round" stroke-linejoin="round"/>
<path d="M82.044 58.1575C83.0313 58.6955 84.0975 59.0935 85.2082 59.3386" stroke="#263238" stroke-linecap="round" stroke-linejoin="round"/>
<path d="M85.1659 60.5098C84.6298 60.8682 84.0142 61.1072 83.3655 61.2087C82.7168 61.3101 82.0521 61.2714 81.4216 61.0954" stroke="#263238" stroke-linecap="round" stroke-linejoin="round"/>
<path d="M80.8099 47.2698C80.8099 47.2698 85.6511 43.6273 91.7052 44.5404" stroke="#263238" stroke-linecap="round" stroke-linejoin="round"/>
<path d="M83.4679 41.5332C83.4679 41.5332 89.522 39.9452 92.1904 41.5332" stroke="#263238" stroke-linecap="round" stroke-linejoin="round"/>
<path d="M60.8125 39.0618C59.8738 39.0618 58.007 37.8807 58.007 34.9429C58.007 32.0051 54.2522 30.2484 51.4466 32.5907C48.6411 34.933 49.2634 36.4118 46.4473 36.9974C43.6312 37.583 37.7037 35.8263 36.765 41.414C35.8263 47.0018 37.0814 48.4608 35.8262 49.9297C34.5711 51.3986 28.0213 54.0486 28.3377 59.0409C28.6542 64.0332 32.3984 64.0034 31.1433 66.9809C29.8882 69.9584 26.7768 73.7398 31.4597 76.6776C36.1427 79.6154 43.9476 73.452 44.8863 75.8042C45.825 78.1565 50.1599 80.2109 53.324 79.3276C56.4882 78.4443 56.1401 75.8042 57.0788 73.7398C58.0175 71.6754 61.1395 71.0998 59.5785 67.2786C58.0175 63.4575 62.0676 59.3386 63.945 59.6364C65.8224 59.9341 67.6893 62.8719 66.7611 64.5989C65.833 66.3258 63.597 74.8812 63.597 79.2879C63.597 83.6946 64.8416 87.5158 67.6471 88.9847C70.4527 90.4536 74.8297 91.9622 77.6458 93.1035C80.4619 94.2449 89.195 97.7981 92.0111 95.4459C94.8272 93.0936 96.3776 87.5058 96.3776 82.2257C96.3776 76.9456 97.9386 71.9434 96.0718 70.4745C94.2049 69.0056 84.4699 67.497 80.7678 69.2934C77.0657 71.0899 72.9629 73.9979 72.3301 73.1146C71.6972 72.2312 69.514 62.8322 71.6972 60.48C73.8805 58.1278 79.1963 55.19 77.9412 51.3688C76.686 47.5477 70.4527 48.7288 70.1362 45.4932C69.8198 42.2577 73.3004 39.3199 69.1975 38.4465C66.3915 37.9947 63.5102 38.2062 60.8125 39.0618V39.0618Z" fill="#BC6C25" stroke="#263238" stroke-linecap="round" stroke-linejoin="round"/>
<path d="M83.299 73.4421C84.2315 74.7561 85.5695 75.7696 87.1328 76.3464C88.696 76.9231 90.4096 77.0352 92.0426 76.6677" stroke="#263238" stroke-linecap="round" stroke-linejoin="round"/>
<path d="M67.2463 63.6759C67.2463 63.6759 66.7611 59.5768 61.4348 58.892C56.1085 58.2072 55.6233 66.4053 57.8066 70.2859C59.9898 74.1666 62.8903 72.1022 62.8903 72.1022" fill="#FFB79A"/>
<path d="M67.2463 63.6759C67.2463 63.6759 66.7611 59.5768 61.4348 58.892C56.1085 58.2072 55.6233 66.4053 57.8066 70.2859C59.9898 74.1666 62.8903 72.1022 62.8903 72.1022" stroke="#263238" stroke-linecap="round" stroke-linejoin="round"/>
<path d="M47.3859 79.02C47.3859 79.02 58.6292 103.703 61.7512 110.175C64.8732 116.646 69.5561 121.34 69.5561 127.801C69.5561 134.263 72.3722 148.376 72.3722 162.479C72.3722 176.583 76.1165 196.86 74.8614 204.79C73.6062 212.72 70.537 218.605 70.537 221.841C70.537 225.077 70.8429 229.781 69.2819 229.781C67.7209 229.781 45.2449 228.312 28.6858 224.491C12.1267 220.67 2.45492 218.903 2.45492 216.551C2.45492 214.199 3.39362 209.792 3.39362 208.611C3.39362 207.43 -0.350628 205.087 1.52677 197.157C3.40417 189.227 5.27102 164.534 5.8933 146.907C6.51559 129.28 14.0146 113.698 19.014 106.641C24.0134 99.5846 32.7253 94.6022 32.7253 94.6022C32.7253 94.6022 27.7365 89.0144 33.664 85.4911C38.054 83.0046 42.6416 80.8411 47.3859 79.02V79.02Z" fill="#606C38" stroke="#263238" stroke-linecap="round" stroke-linejoin="round"/>
<path d="M6.78986 208.502C25.5188 216.055 45.6576 220.026 66.0334 220.183" stroke="#263238" stroke-linecap="round" stroke-linejoin="round"/>
<path d="M13.9091 211.162L12.6329 219.231" stroke="#263238" stroke-linecap="round" stroke-linejoin="round"/>
<path d="M23.3384 214.794L22.0516 221.245" stroke="#263238" stroke-linecap="round" stroke-linejoin="round"/>
<path d="M33.6219 217.206L32.7676 223.657" stroke="#263238" stroke-linecap="round" stroke-linejoin="round"/>
<path d="M43.0511 218.824L42.6187 224.471" stroke="#263238" stroke-linecap="round" stroke-linejoin="round"/>
<path d="M53.7564 220.035V226.079" stroke="#263238" stroke-linecap="round" stroke-linejoin="round"/>
<path d="M61.7512 110.175C58.587 103.703 47.3859 79.02 47.3859 79.02C42.6452 80.8416 38.0612 83.005 33.6746 85.4911C27.7471 89.0144 32.7359 94.6022 32.7359 94.6022C32.7359 94.6022 43.3569 109.291 46.7953 116.05C50.2337 122.809 49.295 121.34 52.4169 126.045C55.5389 130.749 57.0999 134.56 58.0386 133.091C58.9773 131.623 66.7822 124.566 68.6491 125.151C68.8705 125.221 69.1026 125.28 69.3557 125.34C68.3537 120.08 64.4618 115.792 61.7512 110.175Z" fill="#606C38" stroke="#263238" stroke-linecap="round" stroke-linejoin="round"/>
<path d="M104.531 140.436H163.595C163.595 140.436 158.595 146.609 153.912 149.259C149.229 151.909 142.986 152.237 142.986 152.237H127.323C127.323 152.237 114.835 151.899 104.531 140.436Z" fill="#606C38" stroke="#263238" stroke-linecap="round" stroke-linejoin="round"/>
<path d="M102.653 155.72C105.287 153.544 107.506 150.959 109.214 148.078C110.08 146.379 111.346 144.887 112.916 143.716C114.485 142.545 116.318 141.725 118.274 141.319C121.438 140.734 131.7 139.85 133.578 138.967C135.455 138.084 136.742 142.203 135.761 143.671C134.78 145.14 130.761 146.312 128.262 146.649C126.643 146.928 125.195 147.767 124.201 149.001C125.611 150.026 127.194 150.821 128.884 151.353C131.7 152.237 136.699 152.525 138.883 151.353C141.066 150.182 148.871 144.882 149.504 148.376C150.137 151.87 146.688 153.338 144.81 155.423C142.933 157.507 139.537 161.298 138.26 161.596C136.984 161.894 127.017 161.894 120.773 162.479C114.529 163.065 107.062 167.184 107.062 167.184L101.44 155.72H102.653Z" fill="#FFB79A" stroke="#263238" stroke-linecap="round" stroke-linejoin="round"/>
<path d="M91.104 160.127C91.104 160.127 101.092 153.954 102.653 155.72C104.214 157.487 111.713 165.119 109.836 168.355C107.958 171.591 95.787 176.881 95.787 176.881L91.104 160.127Z" fill="#DDA15E" stroke="#263238" stroke-linecap="round" stroke-linejoin="round"/>
<path d="M43.9475 116.348C43.9475 116.348 51.1302 123.692 53.9463 130.451C56.7624 137.21 63.3122 156.256 64.2509 157.775C65.1896 159.293 66.7506 161.894 66.7506 161.894C66.7506 161.894 82.9827 157.775 86.421 157.487C89.8594 157.199 93.2873 160.127 95.4705 163.948C97.6538 167.769 104.847 179.223 101.725 182.171C98.6031 185.118 71.4335 198.348 63.3122 201.266C55.1908 204.184 47.0695 202.437 43.2725 196.304C39.4755 190.17 23.602 156.048 20.4801 148.108C17.3581 140.168 17.6639 133.707 18.9191 131.355" fill="#606C38"/>
<path d="M43.9475 116.348C43.9475 116.348 51.1302 123.692 53.9463 130.451C56.7624 137.21 63.3122 156.256 64.2509 157.775C65.1896 159.293 66.7506 161.894 66.7506 161.894C66.7506 161.894 82.9827 157.775 86.421 157.487C89.8594 157.199 93.2873 160.127 95.4705 163.948C97.6538 167.769 104.847 179.223 101.725 182.171C98.6031 185.118 71.4335 198.348 63.3122 201.266C55.1908 204.184 47.0695 202.437 43.2725 196.304C39.4755 190.17 23.602 156.048 20.4801 148.108C17.3581 140.168 17.6639 133.707 18.9191 131.355" stroke="#263238" stroke-linecap="round" stroke-linejoin="round"/>
<path d="M55.1908 181.287C56.7518 171.878 66.7927 161.894 66.7927 161.894C66.7927 161.894 55.5494 167.184 51.7946 171.591" stroke="#263238" stroke-linecap="round" stroke-linejoin="round"/>
</svg>

