<svg width="500" height="500" viewBox="0 0 500 500" fill="none" xmlns="http://www.w3.org/2000/svg">
<path d="M500 382.4H0V382.65H500V382.4Z" fill="#E0E4CF"/>
<path d="M111.66 390.79H78.54V391.04H111.66V390.79Z" fill="#E0E4CF"/>
<path d="M163.5 398H133.33V398.25H163.5V398Z" fill="#E0E4CF"/>
<path d="M95.1001 400.07H56.8501V400.32H95.1001V400.07Z" fill="#E0E4CF"/>
<path d="M449.9 399.53H434V399.78H449.9V399.53Z" fill="#E0E4CF"/>
<path d="M430.79 399.53H391.47V399.78H430.79V399.53Z" fill="#E0E4CF"/>
<path d="M280.33 390.66H250V390.91H280.33V390.66Z" fill="#E0E4CF"/>
<path d="M356.77 390.66H284.67V390.91H356.77V390.66Z" fill="#E0E4CF"/>
<path d="M237 337.8H43.91C42.3973 337.797 40.9475 337.195 39.8788 336.124C38.8102 335.054 38.21 333.603 38.21 332.09V60.66C38.2231 59.156 38.8292 57.718 39.8964 56.6582C40.9637 55.5985 42.4059 55.0026 43.91 55H237C238.514 55 239.967 55.6016 241.038 56.6724C242.108 57.7433 242.71 59.1956 242.71 60.71V332.09C242.71 333.604 242.108 335.057 241.038 336.128C239.967 337.198 238.514 337.8 237 337.8V337.8ZM43.91 55.2C42.4636 55.2026 41.0774 55.7791 40.0556 56.8027C39.0338 57.8264 38.46 59.2136 38.46 60.66V332.09C38.46 333.536 39.0338 334.924 40.0556 335.947C41.0774 336.971 42.4636 337.547 43.91 337.55H237C238.447 337.547 239.834 336.971 240.858 335.948C241.881 334.924 242.457 333.537 242.46 332.09V60.66C242.457 59.2127 241.881 57.8255 240.858 56.8021C239.834 55.7787 238.447 55.2026 237 55.2H43.91Z" fill="#E0E4CF"/>
<path d="M453.31 337.8H260.21C258.696 337.797 257.246 337.195 256.175 336.125C255.105 335.054 254.503 333.604 254.5 332.09V60.66C254.516 59.1551 255.124 57.7171 256.193 56.6576C257.262 55.5981 258.705 55.0025 260.21 55H453.31C454.812 55.0052 456.252 55.6022 457.317 56.6617C458.382 57.7212 458.987 59.1578 459 60.66V332.09C459 333.601 458.401 335.05 457.335 336.121C456.268 337.191 454.821 337.795 453.31 337.8V337.8ZM260.21 55.2C258.763 55.2026 257.375 55.7787 256.352 56.8021C255.329 57.8255 254.753 59.2127 254.75 60.66V332.09C254.753 333.537 255.329 334.924 256.352 335.948C257.375 336.971 258.763 337.547 260.21 337.55H453.31C454.757 337.547 456.145 336.971 457.168 335.948C458.191 334.924 458.767 333.537 458.77 332.09V60.66C458.767 59.2127 458.191 57.8255 457.168 56.8021C456.145 55.7787 454.757 55.2026 453.31 55.2H260.21Z" fill="#E0E4CF"/>
<path d="M293.39 266.21H264.62V382.4H293.39V266.21Z" fill="#E0E4CF"/>
<path d="M281.43 382.4H293.39V362.36H268.89L281.43 382.4Z" fill="#E0E4CF"/>
<path d="M85.6201 266.21H56.8501V382.4H85.6201V266.21Z" fill="#E0E4CF"/>
<path d="M293.38 266.21H75.1799V375.5H293.38V266.21Z" fill="#E0E4CF"/>
<path d="M284.61 299.76H84V275.86H284.61V299.76ZM85 298.76H283.61V276.86H85V298.76Z" fill="#E0E4CF"/>
<path d="M87.1399 382.4H75.1799V362.36H99.6799L87.1399 382.4Z" fill="#E0E4CF"/>
<path d="M284.61 365.85H84V308.85H284.61V365.85ZM85 364.85H283.61V309.85H85V364.85Z" fill="#E0E4CF"/>
<path d="M407.87 78.52H180.49V235.98H407.87V78.52Z" fill="#E0E4CF"/>
<path d="M412.05 78.52H184.67V235.98H412.05V78.52Z" fill="#E0E4CF"/>
<path d="M404.54 228.04V86.48L192.17 86.48V228.04H404.54Z" fill="white"/>
<path d="M404.55 228.03V86.47H401.39V228.03H404.55Z" fill="#E0E4CF"/>
<path d="M408.94 99.15H187.77V104.49H408.94V99.15Z" fill="#E0E4CF"/>
<g opacity="0.5">
<path opacity="0.5" d="M408.33 73.26H399.35V248.15H408.33V73.26Z" fill="#E0E4CF"/>
<path opacity="0.5" d="M396.92 73.26H387.94V248.15H396.92V73.26Z" fill="#E0E4CF"/>
<path opacity="0.5" d="M385.51 73.26H376.53V248.15H385.51V73.26Z" fill="#E0E4CF"/>
<path opacity="0.5" d="M374.11 73.26H365.13V248.15H374.11V73.26Z" fill="#E0E4CF"/>
<path opacity="0.5" d="M362.7 73.26H353.72V248.15H362.7V73.26Z" fill="#E0E4CF"/>
<path opacity="0.5" d="M351.29 73.26H342.31V248.15H351.29V73.26Z" fill="#E0E4CF"/>
<path opacity="0.5" d="M339.89 73.26H330.91V248.15H339.89V73.26Z" fill="#E0E4CF"/>
<path opacity="0.5" d="M328.48 73.26H319.5V248.15H328.48V73.26Z" fill="#E0E4CF"/>
<path opacity="0.5" d="M317.07 73.26H308.09V248.15H317.07V73.26Z" fill="#E0E4CF"/>
<path opacity="0.5" d="M305.66 73.26H296.68V248.15H305.66V73.26Z" fill="#E0E4CF"/>
<path opacity="0.5" d="M294.26 73.26H285.28V248.15H294.26V73.26Z" fill="#E0E4CF"/>
<path opacity="0.5" d="M282.85 73.26H273.87V248.15H282.85V73.26Z" fill="#E0E4CF"/>
<path opacity="0.5" d="M271.44 73.26H262.46V248.15H271.44V73.26Z" fill="#E0E4CF"/>
<path opacity="0.5" d="M260.03 73.26H251.05V248.15H260.03V73.26Z" fill="#E0E4CF"/>
<path opacity="0.5" d="M248.63 73.26H239.65V248.15H248.63V73.26Z" fill="#E0E4CF"/>
</g>
<path d="M128.25 97.33H62.3501V217.17H128.25V97.33Z" fill="#E0E4CF"/>
<path d="M142.4 97.33H66.6001V217.17H142.4V97.33Z" fill="#E0E4CF"/>
<path d="M69.6899 100.17V214.33H139.31V100.17H69.6899Z" fill="white"/>
<path d="M88.25 122.89V191.61C88.25 193.134 89.4857 194.37 91.01 194.37H118C119.524 194.37 120.76 193.134 120.76 191.61V122.89C120.76 121.366 119.524 120.13 118 120.13H91.01C89.4857 120.13 88.25 121.366 88.25 122.89Z" fill="#E0E4CF"/>
<path d="M383.91 197.29L397.39 230.51C397 326.6 401.34 332.14 401.39 348.67H367.39C366.13 268.24 378.06 286.32 383.91 197.29Z" fill="#E0E4CF"/>
<path d="M402.91 295.42C375.52 220.01 312.46 243.36 315.29 270.85C318.12 298.34 418.66 338.79 402.91 295.42Z" fill="#E0E4CF"/>
<path d="M392.55 338.9C377.61 290.31 337.87 298.24 337.87 320.57C337.87 342.9 401.15 366.85 392.55 338.9Z" fill="#E0E4CF"/>
<path d="M391.49 251.18C368.03 186.18 309.6 195.18 314.31 222.57C319.02 249.96 405 288.54 391.49 251.18Z" fill="#E0E4CF"/>
<path d="M391.65 222.05C393.82 177.79 349.99 159.57 353.03 186.05C356.07 212.53 390.4 247.5 391.65 222.05Z" fill="#E0E4CF"/>
<path d="M388.38 267.36C397.63 212.82 453.8 192.08 447.52 222.95C441.24 253.82 383.05 298.73 388.38 267.36Z" fill="#E0E4CF"/>
<path d="M383.65 236.53C372.74 179.34 423.2 153.93 424.65 181.53C426.1 209.13 389.92 269.42 383.65 236.53Z" fill="#E0E4CF"/>
<path d="M379.27 301.13C401.56 246.02 449.27 259.69 444.48 284.77C439.69 309.85 366.45 332.83 379.27 301.13Z" fill="#E0E4CF"/>
<path d="M390.27 339.61C389.77 304.06 422.05 294.87 422.43 315.47C422.81 336.07 390.56 360.06 390.27 339.61Z" fill="#E0E4CF"/>
<path d="M380.41 382.65C371.955 382.678 363.743 379.818 357.133 374.545C350.523 369.272 345.911 361.9 344.06 353.65C343.187 349.212 341.919 344.861 340.27 340.65L340 339.97H420.83L420.55 340.65C418.904 344.862 417.639 349.212 416.77 353.65C414.917 361.901 410.303 369.273 403.691 374.546C397.08 379.819 388.867 382.678 380.41 382.65V382.65Z" fill="#E0E4CF"/>
<path d="M250 427.56C357.083 427.56 443.89 422.492 443.89 416.24C443.89 409.988 357.083 404.92 250 404.92C142.918 404.92 56.1101 409.988 56.1101 416.24C56.1101 422.492 142.918 427.56 250 427.56Z" fill="#E0E4CF"/>
<path d="M129.37 213.94L128.74 213.17C131.327 211.061 134.068 209.149 136.94 207.45L137.45 208.32C134.62 209.989 131.919 211.868 129.37 213.94Z" fill="#BC6C25"/>
<path d="M108.83 242.52L107.9 242.17C111.334 233.032 116.676 224.731 123.57 217.82L124.28 218.53C117.487 225.341 112.221 233.518 108.83 242.52V242.52Z" fill="#BC6C25"/>
<path d="M302.57 286.59C302.495 277.909 300.3 269.378 296.176 261.739C292.051 254.1 286.123 247.585 278.907 242.76C271.69 237.935 263.404 234.946 254.768 234.054C246.133 233.161 237.411 234.392 229.36 237.64C223.505 225.643 214.065 215.762 202.347 209.366C190.629 202.97 177.212 200.375 163.954 201.94C150.696 203.506 138.253 209.154 128.346 218.103C118.44 227.052 111.56 238.859 108.66 251.89C94.2871 252.797 80.832 259.264 71.1468 269.923C61.4615 280.581 56.3073 294.592 56.7768 308.986C57.2462 323.38 63.3023 337.025 73.6615 347.03C84.0207 357.035 97.8686 362.612 112.27 362.58H288.59C297.782 362.592 306.688 359.38 313.755 353.503C320.823 347.626 325.606 339.456 327.272 330.416C328.937 321.376 327.379 312.038 322.869 304.028C318.359 296.019 311.183 289.844 302.59 286.58L302.57 286.59Z" fill="#BC6C25"/>
<path d="M262.91 268.69H121.81C120.661 268.685 119.562 268.225 118.751 267.412C117.939 266.599 117.483 265.499 117.48 264.35V264.35C117.483 263.202 117.94 262.103 118.751 261.291C119.563 260.48 120.662 260.023 121.81 260.02H262.91C264.058 260.023 265.157 260.48 265.969 261.291C266.78 262.103 267.237 263.202 267.24 264.35V264.35C267.237 265.499 266.781 266.599 265.969 267.412C265.158 268.225 264.058 268.685 262.91 268.69V268.69Z" fill="#283618"/>
<path d="M241.63 327.29H143.09C139.228 327.29 135.525 325.756 132.795 323.026C130.064 320.295 128.53 316.592 128.53 312.73C128.53 308.868 130.064 305.165 132.795 302.435C135.525 299.704 139.228 298.17 143.09 298.17H241.63C245.492 298.17 249.195 299.704 251.926 302.435C254.656 305.165 256.19 308.868 256.19 312.73C256.19 316.592 254.656 320.295 251.926 323.026C249.195 325.756 245.492 327.29 241.63 327.29ZM143.09 299.17C139.494 299.17 136.045 300.599 133.502 303.142C130.959 305.685 129.53 309.134 129.53 312.73C129.53 316.326 130.959 319.775 133.502 322.318C136.045 324.861 139.494 326.29 143.09 326.29H241.63C245.226 326.29 248.675 324.861 251.218 322.318C253.761 319.775 255.19 316.326 255.19 312.73C255.19 309.134 253.761 305.685 251.218 303.142C248.675 300.599 245.226 299.17 241.63 299.17H143.09Z" fill="white"/>
<path d="M166.11 323.79H143.11C140.171 323.793 137.351 322.63 135.269 320.557C133.186 318.483 132.011 315.669 132 312.73V312.73C132.008 309.798 133.175 306.989 135.248 304.915C137.32 302.841 140.128 301.671 143.06 301.66H166.06C168.992 301.671 171.8 302.841 173.872 304.915C175.945 306.989 177.112 309.798 177.12 312.73V312.73C177.11 315.651 175.948 318.451 173.887 320.521C171.826 322.592 169.031 323.766 166.11 323.79V323.79Z" fill="white"/>
<path d="M266.94 184.63L248.23 264.35H136.61L167.83 131.3L245.12 149.43L266.94 184.63Z" fill="#BC6C25"/>
<path opacity="0.8" d="M266.94 184.63L248.23 264.35H136.61L167.83 131.3L245.12 149.43L266.94 184.63Z" fill="#FAFAFA"/>
<path d="M252.38 199.45L167.6 179.55C167.31 179.483 167.036 179.359 166.795 179.186C166.553 179.013 166.347 178.794 166.19 178.541C166.033 178.288 165.928 178.007 165.88 177.714C165.831 177.42 165.842 177.12 165.91 176.83C166.046 176.244 166.408 175.736 166.918 175.417C167.428 175.099 168.044 174.995 168.63 175.13L253.42 195C254.005 195.14 254.511 195.506 254.827 196.017C255.144 196.528 255.245 197.144 255.11 197.73V197.73C254.974 198.319 254.611 198.83 254.099 199.153C253.588 199.475 252.97 199.582 252.38 199.45V199.45Z" fill="#BC6C25"/>
<path d="M249.14 213.25L164.36 193.35C164.07 193.282 163.796 193.157 163.554 192.983C163.312 192.809 163.106 192.589 162.95 192.335C162.793 192.082 162.687 191.8 162.639 191.505C162.591 191.211 162.602 190.91 162.67 190.62V190.62C162.81 190.035 163.176 189.53 163.687 189.213C164.198 188.896 164.814 188.795 165.4 188.93L250.18 208.83C250.764 208.968 251.27 209.332 251.586 209.841C251.903 210.351 252.005 210.965 251.87 211.55V211.55C251.732 212.137 251.367 212.645 250.856 212.963C250.344 213.282 249.727 213.385 249.14 213.25V213.25Z" fill="#BC6C25"/>
<path d="M245.9 227L161.12 207.11C160.535 206.97 160.03 206.604 159.713 206.093C159.396 205.582 159.295 204.966 159.43 204.38V204.38C159.573 203.797 159.939 203.293 160.449 202.976C160.96 202.66 161.574 202.557 162.16 202.69L246.94 222.58C247.23 222.648 247.504 222.773 247.746 222.947C247.988 223.121 248.194 223.341 248.351 223.595C248.507 223.848 248.613 224.13 248.661 224.425C248.709 224.719 248.698 225.02 248.63 225.31V225.31C248.562 225.6 248.437 225.874 248.263 226.116C248.089 226.358 247.869 226.564 247.615 226.721C247.362 226.877 247.08 226.983 246.785 227.031C246.491 227.079 246.19 227.068 245.9 227V227Z" fill="#BC6C25"/>
<path d="M242.67 240.84L157.88 221C157.297 220.857 156.793 220.491 156.476 219.981C156.16 219.47 156.057 218.856 156.19 218.27V218.27C156.33 217.685 156.696 217.18 157.207 216.863C157.718 216.546 158.334 216.445 158.92 216.58L243.7 236.47C244.285 236.61 244.792 236.976 245.11 237.486C245.428 237.997 245.532 238.613 245.4 239.2V239.2C245.251 239.777 244.882 240.272 244.371 240.579C243.86 240.886 243.249 240.98 242.67 240.84V240.84Z" fill="#BC6C25"/>
<path d="M205.72 246.73L154.65 234.73C154.071 234.583 153.574 234.215 153.265 233.704C152.956 233.193 152.861 232.581 153 232C153.067 231.71 153.191 231.436 153.364 231.195C153.537 230.953 153.756 230.747 154.009 230.59C154.262 230.433 154.543 230.328 154.837 230.28C155.13 230.232 155.431 230.242 155.72 230.31L206.8 242.31C207.09 242.378 207.364 242.503 207.606 242.677C207.848 242.851 208.054 243.071 208.211 243.325C208.368 243.579 208.473 243.86 208.521 244.155C208.569 244.449 208.558 244.75 208.49 245.04V245.04C208.422 245.335 208.296 245.613 208.119 245.858C207.942 246.103 207.719 246.31 207.461 246.468C207.203 246.625 206.916 246.729 206.617 246.774C206.318 246.819 206.013 246.804 205.72 246.73V246.73Z" fill="#BC6C25"/>
<path d="M266.94 184.63L238.43 177.94L245.12 149.43L266.94 184.63Z" fill="#BC6C25"/>
<path d="M286.09 260.33L262.39 416.24H267.07L270.2 395.61H330.58L327.45 416.24H332.13L355.83 260.33H286.09ZM331.21 391.48H270.83L274.2 369.36H334.58L331.21 391.48ZM335.21 365.23H274.82L278.19 343.11H338.57L335.21 365.23ZM339.21 338.98H278.81L282.18 316.86H342.56L339.21 338.98ZM343.21 312.73H282.81L286.17 290.6H346.55L343.21 312.73ZM286.8 286.47L290.16 264.35H350.54L347.18 286.47H286.8Z" fill="#283618"/>
<path d="M365.58 260.33H295.84L319.54 416.24H324.22L321.08 395.61H381.46L384.6 416.24H389.28L365.58 260.33ZM301.13 264.33H361.51L364.87 286.45H304.49L301.13 264.33ZM305.13 290.58H365.5L368.86 312.71H308.48L305.13 290.58ZM309.13 316.84H369.51L372.85 339H312.47L309.13 316.84ZM313.13 343.09H373.51L376.87 365.21H316.46L313.13 343.09ZM320.48 391.46L317.12 369.34H377.5L380.86 391.46H320.48Z" fill="#263238"/>
<path opacity="0.4" d="M365.58 260.33H295.84L319.54 416.24H324.22L321.08 395.61H381.46L384.6 416.24H389.28L365.58 260.33ZM301.13 264.33H361.51L364.87 286.45H304.49L301.13 264.33ZM305.13 290.58H365.5L368.86 312.71H308.48L305.13 290.58ZM309.13 316.84H369.51L372.85 339H312.47L309.13 316.84ZM313.13 343.09H373.51L376.87 365.21H316.46L313.13 343.09ZM320.48 391.46L317.12 369.34H377.5L380.86 391.46H320.48Z" fill="white"/>
<path d="M335.7 108.58C337.7 110.12 339.46 111.66 341.28 113.26C343.1 114.86 344.84 116.5 346.56 118.19C350.05 121.611 353.311 125.259 356.32 129.11L357.44 130.62L358 131.37C358.317 131.812 358.601 132.277 358.85 132.76C359.655 134.376 360.124 136.138 360.23 137.94C360.375 140.717 360.088 143.5 359.38 146.19C358.158 151.017 356.295 155.658 353.84 159.99L348.73 157.91C349.752 153.595 350.477 149.214 350.9 144.8C351.09 142.897 351.029 140.977 350.72 139.09C350.63 138.551 350.429 138.037 350.13 137.58C350.08 137.53 350.06 137.53 350.03 137.5L349.49 136.89L348.41 135.66C345.41 132.42 342.25 129.26 338.91 126.22C335.57 123.18 332.11 120.12 328.75 117.28L335.7 108.58Z" fill="#7F3E3B"/>
<path d="M350.76 155.85L345.01 159.85L352.01 164.09C352.01 164.09 355.62 160.64 354.07 157.44L350.76 155.85Z" fill="#7F3E3B"/>
<path d="M342.15 166.42L347.45 169.39L352.05 164.04L345.01 159.81L342.15 166.42Z" fill="#7F3E3B"/>
<path d="M296.55 87.68C296.71 88.33 296.5 88.94 296.08 89.05C295.66 89.16 295.18 88.72 295.01 88.05C294.84 87.38 295.06 86.79 295.48 86.68C295.9 86.57 296.38 87 296.55 87.68Z" fill="#263238"/>
<path d="M296.56 88.9301C296.297 91.1035 295.735 93.2302 294.89 95.2501C295.413 95.4518 295.974 95.5375 296.533 95.5013C297.093 95.465 297.638 95.3076 298.13 95.0401L296.56 88.9301Z" fill="#630F0F"/>
<path d="M297.92 83.51C297.842 83.5353 297.758 83.5353 297.68 83.51C297.227 83.3174 296.734 83.2343 296.242 83.2673C295.751 83.3003 295.274 83.4485 294.85 83.7C294.766 83.7456 294.669 83.7589 294.576 83.7375C294.483 83.7162 294.402 83.6616 294.346 83.5842C294.291 83.5067 294.266 83.4116 294.276 83.3169C294.286 83.2222 294.33 83.1344 294.4 83.07C294.928 82.7384 295.528 82.5389 296.15 82.4884C296.771 82.438 297.395 82.538 297.97 82.78C298.046 82.8107 298.111 82.8648 298.155 82.9346C298.199 83.0043 298.219 83.0861 298.214 83.1682C298.208 83.2503 298.177 83.3286 298.124 83.3918C298.071 83.455 298 83.4999 297.92 83.52V83.51Z" fill="#263238"/>
<path d="M317.05 89.5C317.98 95.6 319.29 104.95 324.65 107.31C324.65 107.31 325.17 113.65 314.58 117.46C302.94 121.65 306.94 113.69 306.94 113.69C312.75 109.88 310.89 105.23 308.19 101.2L317.05 89.5Z" fill="#7F3E3B"/>
<path d="M325.65 106C325.65 104.09 323.7 100.78 321.73 101C319.56 101.25 311.28 104.3 308.26 107.09C305.24 109.88 307.38 114.77 307.38 114.77L325.65 106Z" fill="#606C38"/>
<path d="M389.5 337.2C388.98 337.74 388.39 338.2 387.93 338.13C387.73 338.13 387.47 337.99 387.34 337.55C387.305 337.439 387.295 337.321 387.311 337.205C387.326 337.089 387.367 336.978 387.43 336.88C387.99 335.93 390.43 335.44 390.5 335.42C390.534 335.413 390.568 335.416 390.6 335.429C390.632 335.441 390.66 335.462 390.68 335.49C390.697 335.519 390.706 335.552 390.706 335.585C390.706 335.618 390.697 335.651 390.68 335.68C390.34 336.226 389.945 336.735 389.5 337.2ZM387.86 336.89C387.805 336.94 387.758 336.997 387.72 337.06C387.685 337.118 387.663 337.183 387.654 337.25C387.646 337.317 387.651 337.385 387.67 337.45C387.77 337.76 387.92 337.78 387.97 337.79C388.48 337.85 389.53 336.79 390.16 335.86C389.325 336.025 388.539 336.377 387.86 336.89Z" fill="#BC6C25"/>
<path d="M390.66 335.71C390.641 335.732 390.617 335.749 390.59 335.76C389.76 336.02 387.59 335.95 387.1 335.27C387.03 335.162 386.997 335.033 387.008 334.905C387.019 334.776 387.072 334.655 387.16 334.56C387.24 334.452 387.342 334.362 387.459 334.296C387.576 334.231 387.706 334.191 387.84 334.18C388.93 334.05 390.58 335.4 390.65 335.46C390.673 335.479 390.691 335.504 390.702 335.532C390.712 335.56 390.715 335.59 390.71 335.62C390.702 335.654 390.685 335.685 390.66 335.71V335.71ZM387.49 334.71C387.49 334.71 387.49 334.71 387.44 334.77C387.3 334.95 387.36 335.03 387.39 335.07C387.67 335.47 389.2 335.65 390.14 335.5C389.506 334.944 388.718 334.595 387.88 334.5C387.804 334.506 387.73 334.528 387.663 334.564C387.596 334.6 387.537 334.65 387.49 334.71Z" fill="#BC6C25"/>
<path d="M329 358.1C328.06 358.1 327.15 357.97 326.84 357.55C326.763 357.438 326.722 357.306 326.722 357.17C326.722 357.034 326.763 356.902 326.84 356.79C326.899 356.688 326.978 356.599 327.073 356.529C327.168 356.458 327.275 356.408 327.39 356.38C328.61 356.05 331.18 357.51 331.29 357.58C331.32 357.596 331.343 357.622 331.358 357.652C331.372 357.683 331.376 357.717 331.37 357.75C331.366 357.787 331.351 357.821 331.325 357.849C331.3 357.876 331.267 357.894 331.23 357.9C330.494 358.03 329.748 358.097 329 358.1ZM327.84 356.68C327.727 356.664 327.613 356.664 327.5 356.68C327.43 356.694 327.363 356.722 327.305 356.764C327.246 356.805 327.197 356.858 327.16 356.92C327.04 357.14 327.08 357.24 327.16 357.31C327.5 357.78 329.35 357.79 330.72 357.6C329.832 357.112 328.857 356.799 327.85 356.68H327.84Z" fill="#BC6C25"/>
<path d="M331.23 357.9C331.208 357.908 331.183 357.908 331.16 357.9C330.27 357.51 328.52 355.9 328.65 355.09C328.65 354.89 328.82 354.65 329.3 354.6C329.479 354.578 329.66 354.594 329.832 354.645C330.004 354.697 330.163 354.784 330.3 354.9C330.973 355.697 331.372 356.689 331.44 357.73C331.444 357.76 331.44 357.791 331.427 357.82C331.415 357.848 331.395 357.872 331.37 357.89C331.349 357.902 331.325 357.908 331.301 357.91C331.277 357.912 331.253 357.908 331.23 357.9ZM329.44 354.9H329.33C329.02 354.9 329 355.05 328.99 355.09C328.91 355.59 330.11 356.84 330.99 357.38C330.904 356.54 330.554 355.749 329.99 355.12C329.833 354.995 329.64 354.925 329.44 354.92V354.9Z" fill="#BC6C25"/>
<path d="M339.31 357.73H331.96L331.23 340.71H338.58L339.31 357.73Z" fill="#7F3E3B"/>
<path d="M398.18 332.81L391.38 335.28L382.74 320.04L389.54 317.57L398.18 332.81Z" fill="#7F3E3B"/>
<path d="M390.31 334.61L396.05 328.67C396.152 328.568 396.285 328.503 396.428 328.485C396.571 328.467 396.716 328.497 396.84 328.57L402.54 332.07C402.678 332.156 402.794 332.272 402.881 332.41C402.968 332.547 403.022 332.703 403.04 332.864C403.059 333.026 403.04 333.189 402.986 333.343C402.933 333.496 402.845 333.635 402.73 333.75C400.73 335.75 399.6 336.68 397.08 339.29C395.52 340.89 390.9 346.29 388.76 348.55C386.62 350.81 384.14 348.93 384.82 347.83C387.87 342.9 389.71 338.21 389.82 335.78C389.833 335.343 390.008 334.926 390.31 334.61Z" fill="#263238"/>
<path d="M332 356.88H340C340.146 356.879 340.289 356.928 340.403 357.019C340.518 357.11 340.598 357.237 340.63 357.38L342.08 363.91C342.117 364.068 342.117 364.232 342.08 364.39C342.044 364.547 341.972 364.695 341.869 364.82C341.767 364.946 341.637 365.046 341.49 365.114C341.343 365.181 341.182 365.214 341.02 365.21C338.13 365.21 333.95 365 330.31 365C326.06 365 324.2 365.23 319.21 365.23C316.21 365.23 315.36 362.18 316.62 361.9C322.37 360.64 325.24 360.51 330.21 357.45C330.742 357.098 331.362 356.9 332 356.88V356.88Z" fill="#263238"/>
<path d="M312.05 123.17C310.92 126.02 309.72 128.67 308.48 131.39C307.24 134.11 305.92 136.75 304.56 139.39C301.804 144.822 298.645 150.04 295.11 155C294.18 156.26 293.18 157.51 292.11 158.75C291.56 159.38 291 159.96 290.34 160.61C289.576 161.331 288.742 161.975 287.85 162.53C286.381 163.429 284.835 164.195 283.23 164.82C281.73 165.43 280.23 165.93 278.76 166.37C272.966 168.051 267.021 169.156 261.01 169.67L259.89 164.27C265.24 162.34 270.68 160.33 275.69 158.09C276.93 157.51 278.15 156.92 279.29 156.31C280.344 155.763 281.348 155.123 282.29 154.4C282.615 154.155 282.913 153.877 283.18 153.57C283.53 153.16 283.95 152.68 284.33 152.19C285.1 151.19 285.86 150.13 286.59 149C288.08 146.78 289.46 144.37 290.79 141.92C292.12 139.47 293.42 136.92 294.66 134.42C297.15 129.35 299.56 124.1 301.78 118.97L312.05 123.17Z" fill="#7F3E3B"/>
<path d="M328.82 104.19C339.36 103.37 348.82 119 348.82 119L341.25 131.3C335.804 129.147 330.739 126.132 326.25 122.37C319.08 116.14 321.62 104.76 328.82 104.19Z" fill="#283618"/>
<path opacity="0.3" d="M328.16 117.36L339.25 132.29L338.75 132.9C338.75 132.9 334.93 129.9 330.51 125.56L328.16 117.36Z" fill="black"/>
<path d="M299.59 115.84C299 120.99 307.59 143.77 309.59 170.79L348.7 166.94C348.42 161.76 345.56 139.94 340.38 115.31C338.95 108.51 333.68 103.31 326.87 104.64H326.68C321.211 105.708 315.808 107.093 310.5 108.79C307.497 109.883 304.571 111.176 301.74 112.66C301.148 112.972 300.642 113.426 300.267 113.981C299.892 114.535 299.659 115.174 299.59 115.84Z" fill="#283618"/>
<path opacity="0.3" d="M303.55 134.76C304.21 137.51 304.9 140.49 305.55 143.66C311.5 142.25 310.35 129.06 310.47 128.89L303.55 134.76Z" fill="black"/>
<path d="M312.33 118.39C315.33 128.68 304.23 142.39 304.23 142.39L293.05 135.19C293.05 135.19 292.97 125.76 296.54 118.4C301.07 109.08 310.19 111.05 312.33 118.39Z" fill="#283618"/>
<path d="M260 163.29L255.51 162.68L255.58 172.06C255.58 172.06 261.63 172.68 264.99 168.51L264.33 166.75C263.987 165.836 263.404 165.032 262.642 164.423C261.88 163.814 260.967 163.423 260 163.29V163.29Z" fill="#7F3E3B"/>
<path d="M247.84 164.85L250.71 172.49L255.62 172.06L255.55 162.68L247.84 164.85Z" fill="#7F3E3B"/>
<path opacity="0.2" d="M331.23 340.72L331.64 350.28H338.99L338.58 340.72H331.23Z" fill="black"/>
<path opacity="0.2" d="M389.54 317.57L382.74 320.04L387.52 328.48L394 325.42L389.54 317.57Z" fill="black"/>
<path d="M317.76 80.78C319.31 88.85 320.63 93.49 317.66 98.6C313.2 106.28 302.46 105.15 298.54 97.71C295 91 293.06 78.94 300 73.79C301.53 72.6393 303.329 71.8998 305.226 71.6422C307.123 71.3846 309.054 71.6174 310.835 72.3184C312.616 73.0195 314.188 74.1654 315.4 75.6467C316.613 77.128 317.425 78.8953 317.76 80.78Z" fill="#7F3E3B"/>
<path d="M304.17 86.17C299.25 88.63 299.17 80.77 299.56 79.1C297.71 80.88 295.21 82.67 290.67 80.71C285.09 78.3 286.67 72 290.67 72.08C290.67 72.08 287.67 66.38 294.23 65.78C296.93 65.6902 299.622 66.1039 302.17 67C302.17 67 304.6 60.63 310.52 63.72C313.65 65.35 316.15 70.17 316.15 70.17C316.15 70.17 328.9 72.06 321.98 78.72C323.55 82.14 322.72 93.27 318.67 98.03C316.9 100.11 301.75 99.5 304.17 86.17Z" fill="#263238"/>
<path d="M313.94 73.42C313.94 73.42 316.25 70.23 316.44 62.87C321.83 68.73 313.94 73.42 313.94 73.42Z" fill="#263238"/>
<path d="M306.56 85.7201C306.69 87.7596 306.142 89.7848 305 91.4801C303.5 93.7101 301.46 92.7501 300.8 90.4001C300.2 88.2901 300.26 84.5801 302.29 83.1801C304.32 81.7801 306.35 83.2601 306.56 85.7201Z" fill="#7F3E3B"/>
<path d="M323.48 169.43C323.48 169.43 337.28 224.43 343.9 244.96C351.14 267.4 382.56 326.23 382.56 326.23L394.89 320.86C394.89 320.86 371.11 267.3 366.03 244.86C360.52 220.54 348.72 166.92 348.72 166.92L323.48 169.43Z" fill="#606C38"/>
<path d="M378.91 322.17C378.86 322.17 382.91 327.96 382.91 327.96L396.76 321.84L393.96 316.11L378.91 322.17Z" fill="#283618"/>
<path opacity="0.3" d="M330.69 188.82C340.47 189.75 342.97 225.63 343.63 244.15C339.58 231.41 333.07 206.78 328.55 189.29C329.19 188.896 329.944 188.731 330.69 188.82V188.82Z" fill="black"/>
<path d="M309.61 170.79C309.61 170.79 311.2 227.31 314.19 249.53C317.3 272.64 328.8 346.53 328.8 346.53H341.25C341.25 346.53 338.37 271.91 336.68 249.08C334.84 224.19 335.32 168.24 335.32 168.24L309.61 170.79Z" fill="#606C38"/>
<path d="M326.32 340.72C326.27 340.72 327.32 348.25 327.32 348.25L342.45 347.73L342.59 340.73L326.32 340.72Z" fill="#283618"/>
</svg>

