<svg width="500" height="500" viewBox="0 0 500 500" fill="none" xmlns="http://www.w3.org/2000/svg">
<path d="M500 382.4H0V382.65H500V382.4Z" fill="#E0E4CF"/>
<path d="M75.9 392H65.29V392.25H75.9V392Z" fill="#E0E4CF"/>
<path d="M126.39 391.88H83.24V392.13H126.39V391.88Z" fill="#E0E4CF"/>
<path d="M146.33 397.67H112.18V397.92H146.33V397.67Z" fill="#E0E4CF"/>
<path d="M230.12 389.92H154.01V390.17H230.12V389.92Z" fill="#E0E4CF"/>
<path d="M403.27 394.14H349.33V394.39H403.27V394.14Z" fill="#E0E4CF"/>
<path d="M343.78 394.14H336.16V394.39H343.78V394.14Z" fill="#E0E4CF"/>
<path d="M429.72 389.79H376.83V390.04H429.72V389.79Z" fill="#E0E4CF"/>
<path d="M237 337.8H43.91C42.3973 337.797 40.9475 337.195 39.8788 336.124C38.8102 335.054 38.21 333.603 38.21 332.09V60.66C38.2231 59.156 38.8292 57.718 39.8964 56.6582C40.9637 55.5985 42.4059 55.0026 43.91 55H237C238.514 55 239.967 55.6016 241.038 56.6724C242.108 57.7433 242.71 59.1956 242.71 60.71V332.09C242.71 333.604 242.108 335.057 241.038 336.128C239.967 337.198 238.514 337.8 237 337.8V337.8ZM43.91 55.2C42.4636 55.2026 41.0774 55.7791 40.0556 56.8027C39.0338 57.8264 38.46 59.2136 38.46 60.66V332.09C38.46 333.536 39.0338 334.924 40.0556 335.947C41.0774 336.971 42.4636 337.547 43.91 337.55H237C238.447 337.547 239.834 336.971 240.858 335.948C241.881 334.924 242.457 333.537 242.46 332.09V60.66C242.457 59.2127 241.881 57.8255 240.858 56.8021C239.834 55.7787 238.447 55.2026 237 55.2H43.91Z" fill="#E0E4CF"/>
<path d="M453.31 337.8H260.21C258.696 337.797 257.246 337.195 256.175 336.125C255.105 335.054 254.503 333.604 254.5 332.09V60.66C254.516 59.1551 255.124 57.7171 256.193 56.6576C257.262 55.5981 258.705 55.0025 260.21 55H453.31C454.812 55.0052 456.252 55.6022 457.317 56.6617C458.382 57.7212 458.987 59.1578 459 60.66V332.09C459 333.601 458.401 335.05 457.335 336.121C456.268 337.191 454.821 337.795 453.31 337.8V337.8ZM260.21 55.2C258.763 55.2026 257.375 55.7787 256.352 56.8021C255.329 57.8255 254.753 59.2127 254.75 60.66V332.09C254.753 333.537 255.329 334.924 256.352 335.948C257.375 336.971 258.763 337.547 260.21 337.55H453.31C454.757 337.547 456.145 336.971 457.168 335.948C458.191 334.924 458.767 333.537 458.77 332.09V60.66C458.767 59.2127 458.191 57.8255 457.168 56.8021C456.145 55.7787 454.757 55.2026 453.31 55.2H260.21Z" fill="#E0E4CF"/>
<path d="M308.94 382.4H202.46C207.027 365.162 208.416 347.236 206.56 329.5C204.23 306.55 196.62 283.5 183.74 261.37H290.21C303.09 283.48 310.7 306.55 313.04 329.5C314.896 347.236 313.506 365.162 308.94 382.4V382.4Z" fill="#E0E4CF"/>
<path d="M306.61 382.4H200.13C204.697 365.162 206.086 347.236 204.23 329.5C201.9 306.55 194.29 283.5 181.41 261.37H287.88C300.76 283.48 308.37 306.55 310.71 329.5C312.565 347.236 311.176 365.162 306.61 382.4Z" fill="#E0E4CF"/>
<path d="M310.71 329.5H204.23C201.9 306.55 194.29 283.5 181.41 261.37H287.88C300.76 283.48 308.37 306.55 310.71 329.5Z" fill="#E0E4CF"/>
<path d="M412.47 96.1699H83.8101C78.1768 96.1699 73.6101 100.737 73.6101 106.37V308.95C73.6101 314.583 78.1768 319.15 83.8101 319.15H412.47C418.103 319.15 422.67 314.583 422.67 308.95V106.37C422.67 100.737 418.103 96.1699 412.47 96.1699Z" fill="#E0E4CF"/>
<path d="M410.65 96.1699H81.99C76.3567 96.1699 71.79 100.737 71.79 106.37V308.95C71.79 314.583 76.3567 319.15 81.99 319.15H410.65C416.283 319.15 420.85 314.583 420.85 308.95V106.37C420.85 100.737 416.283 96.1699 410.65 96.1699Z" fill="#E0E4CF"/>
<path d="M420.85 107.89H71.79V284.33H420.85V107.89Z" fill="white"/>
<path d="M294.29 374H172.75C170.517 374 168.375 374.887 166.796 376.466C165.217 378.045 164.33 380.187 164.33 382.42H302.71C302.71 380.187 301.823 378.045 300.244 376.466C298.665 374.887 296.523 374 294.29 374V374Z" fill="#E0E4CF"/>
<path d="M323.25 374H301.49C299.257 374 297.115 374.887 295.536 376.466C293.957 378.045 293.07 380.187 293.07 382.42H331.67C331.67 380.187 330.783 378.045 329.204 376.466C327.625 374.887 325.483 374 323.25 374V374Z" fill="#E0E4CF"/>
<path d="M195.28 236.33L401.05 236.33C403.452 236.33 405.4 234.383 405.4 231.98V77.1701C405.4 74.7676 403.452 72.8201 401.05 72.8201L195.28 72.8201C192.877 72.8201 190.93 74.7676 190.93 77.1701L190.93 231.98C190.93 234.383 192.877 236.33 195.28 236.33Z" fill="#E0E4CF"/>
<path d="M194.13 236.33L399.9 236.33C402.302 236.33 404.25 234.383 404.25 231.98V77.1701C404.25 74.7676 402.302 72.8201 399.9 72.8201L194.13 72.8201C191.728 72.8201 189.78 74.7676 189.78 77.1701L189.78 231.98C189.78 234.383 191.728 236.33 194.13 236.33Z" fill="#E0E4CF"/>
<path d="M404.25 84.0701V232C404.247 233.153 403.788 234.258 402.973 235.073C402.158 235.888 401.053 236.347 399.9 236.35H194.13C192.977 236.347 191.872 235.888 191.057 235.073C190.242 234.258 189.783 233.153 189.78 232V84.0701H404.25Z" fill="#E0E4CF"/>
<path d="M403.45 89.8501H190.59V230.54H403.45V89.8501Z" fill="white"/>
<path d="M392.39 78.4699C392.39 78.9268 392.526 79.3734 392.779 79.7533C393.033 80.1332 393.394 80.4292 393.816 80.6041C394.238 80.7789 394.703 80.8247 395.151 80.7355C395.599 80.6464 396.01 80.4264 396.334 80.1033C396.657 79.7803 396.877 79.3687 396.966 78.9206C397.055 78.4725 397.009 78.008 396.834 77.5859C396.659 77.1638 396.363 76.803 395.983 76.5492C395.604 76.2954 395.157 76.1599 394.7 76.1599C394.087 76.1599 393.5 76.4033 393.067 76.8365C392.634 77.2697 392.39 77.8573 392.39 78.4699Z" fill="white"/>
<path d="M384.19 78.4699C384.19 78.9268 384.325 79.3734 384.579 79.7533C384.833 80.1332 385.194 80.4292 385.616 80.6041C386.038 80.7789 386.502 80.8247 386.951 80.7355C387.399 80.6464 387.81 80.4264 388.133 80.1033C388.456 79.7803 388.676 79.3687 388.766 78.9206C388.855 78.4725 388.809 78.008 388.634 77.5859C388.459 77.1638 388.163 76.803 387.783 76.5492C387.403 76.2954 386.957 76.1599 386.5 76.1599C385.887 76.1599 385.3 76.4033 384.867 76.8365C384.433 77.2697 384.19 77.8573 384.19 78.4699Z" fill="white"/>
<path d="M376 78.4699C376 78.9268 376.135 79.3734 376.389 79.7533C376.643 80.1332 377.004 80.4292 377.426 80.6041C377.848 80.7789 378.313 80.8247 378.761 80.7355C379.209 80.6464 379.62 80.4264 379.943 80.1033C380.266 79.7803 380.486 79.3687 380.576 78.9206C380.665 78.4725 380.619 78.008 380.444 77.5859C380.269 77.1638 379.973 76.803 379.593 76.5492C379.213 76.2954 378.767 76.1599 378.31 76.1599C377.697 76.1599 377.11 76.4033 376.677 76.8365C376.243 77.2697 376 77.8573 376 78.4699Z" fill="white"/>
<path d="M189.78 84.3501L404.25 84.3501V83.7701L189.78 83.7701V84.3501Z" fill="#E0E4CF"/>
<path d="M174.5 257.1H380.27C382.673 257.1 384.62 255.153 384.62 252.75V97.9401C384.62 95.5377 382.673 93.5901 380.27 93.5901L174.5 93.5901C172.098 93.5901 170.15 95.5377 170.15 97.9401L170.15 252.75C170.15 255.153 172.098 257.1 174.5 257.1Z" fill="#E0E4CF"/>
<path d="M173.35 257.1H379.12C381.522 257.1 383.47 255.153 383.47 252.75V97.9401C383.47 95.5377 381.522 93.5901 379.12 93.5901L173.35 93.5901C170.948 93.5901 169 95.5377 169 97.9401L169 252.75C169 255.153 170.948 257.1 173.35 257.1Z" fill="#E0E4CF"/>
<path d="M383.47 104.85V252.75C383.467 253.905 383.007 255.011 382.189 255.827C381.372 256.642 380.265 257.1 379.11 257.1H173.35C172.197 257.097 171.092 256.638 170.277 255.823C169.462 255.008 169.003 253.903 169 252.75V104.85H383.47Z" fill="#E0E4CF"/>
<path d="M382.66 110.63H169.8V251.32H382.66V110.63Z" fill="white"/>
<path d="M373.92 101.56C375.196 101.56 376.23 100.526 376.23 99.2499C376.23 97.9742 375.196 96.9399 373.92 96.9399C372.644 96.9399 371.61 97.9742 371.61 99.2499C371.61 100.526 372.644 101.56 373.92 101.56Z" fill="white"/>
<path d="M363.4 99.2499C363.398 99.7092 363.532 100.159 363.786 100.542C364.04 100.924 364.401 101.223 364.825 101.4C365.249 101.578 365.716 101.625 366.166 101.537C366.617 101.448 367.031 101.228 367.357 100.904C367.682 100.58 367.904 100.167 367.995 99.7162C368.085 99.2659 368.04 98.7989 367.864 98.3744C367.689 97.9499 367.392 97.587 367.01 97.3316C366.628 97.0763 366.179 96.9399 365.72 96.9399C365.106 96.9399 364.518 97.183 364.083 97.6159C363.648 98.0488 363.403 98.6364 363.4 99.2499Z" fill="white"/>
<path d="M357.52 101.56C358.796 101.56 359.83 100.526 359.83 99.2499C359.83 97.9742 358.796 96.9399 357.52 96.9399C356.244 96.9399 355.21 97.9742 355.21 99.2499C355.21 100.526 356.244 101.56 357.52 101.56Z" fill="white"/>
<path d="M169 105.13L383.47 105.13V104.55L169 104.55V105.13Z" fill="#E0E4CF"/>
<path d="M346.11 178.32C338.34 178.32 334.58 170.4 330.93 162.75C327.4 155.33 324.07 148.32 317.56 148.32C311.05 148.32 307.72 155.32 304.19 162.75C300.55 170.4 296.78 178.32 289.01 178.32C281.24 178.32 277.48 170.4 273.84 162.75C270.31 155.33 266.97 148.32 260.47 148.32C253.97 148.32 250.63 155.32 247.1 162.75C243.46 170.4 239.69 178.32 231.93 178.32C224.17 178.32 220.39 170.4 216.75 162.75C213.22 155.33 209.89 148.32 203.38 148.32C196.87 148.32 193.54 155.32 190.01 162.75C186.37 170.4 182.61 178.32 174.84 178.32C167.07 178.32 163.31 170.4 159.66 162.75C156.14 155.33 152.8 148.32 146.3 148.32C139.8 148.32 136.46 155.32 132.93 162.75C129.29 170.4 125.53 178.32 117.76 178.32C109.99 178.32 106.23 170.4 102.59 162.75C99.06 155.33 95.72 148.32 89.22 148.32V146.32C96.99 146.32 100.75 154.24 104.39 161.89C107.92 169.31 111.26 176.32 117.76 176.32C124.26 176.32 127.6 169.32 131.13 161.89C134.77 154.24 138.53 146.32 146.3 146.32C154.07 146.32 157.83 154.24 161.47 161.89C165 169.31 168.33 176.32 174.84 176.32C181.35 176.32 184.68 169.32 188.21 161.89C191.85 154.24 195.61 146.32 203.38 146.32C211.15 146.32 214.91 154.24 218.56 161.89C222.09 169.31 225.42 176.32 231.93 176.32C238.44 176.32 241.76 169.32 245.29 161.89C248.94 154.24 252.7 146.32 260.47 146.32C268.24 146.32 272 154.24 275.65 161.89C279.18 169.31 282.51 176.32 289.01 176.32C295.51 176.32 298.86 169.32 302.39 161.89C306.03 154.24 309.79 146.32 317.56 146.32C325.33 146.32 329.1 154.24 332.74 161.89C336.27 169.31 339.61 176.32 346.11 176.32V178.32Z" fill="#E0E4CF"/>
<path d="M346.11 224.33C338.34 224.33 334.58 216.42 330.93 208.76C327.4 201.34 324.07 194.33 317.56 194.33C311.05 194.33 307.72 201.33 304.19 208.76C300.55 216.42 296.78 224.33 289.01 224.33C281.24 224.33 277.48 216.42 273.84 208.76C270.31 201.34 266.97 194.33 260.47 194.33C253.97 194.33 250.63 201.33 247.1 208.76C243.46 216.42 239.69 224.33 231.93 224.33C224.17 224.33 220.39 216.42 216.75 208.76C213.22 201.34 209.89 194.33 203.38 194.33C196.87 194.33 193.54 201.33 190.01 208.76C186.37 216.42 182.61 224.33 174.84 224.33C167.07 224.33 163.31 216.42 159.66 208.76C156.14 201.34 152.8 194.33 146.3 194.33C139.8 194.33 136.46 201.33 132.93 208.76C129.29 216.42 125.53 224.33 117.76 224.33C109.99 224.33 106.23 216.42 102.59 208.76C99.06 201.34 95.72 194.33 89.22 194.33V192.33C96.99 192.33 100.75 200.25 104.39 207.9C107.92 215.32 111.26 222.33 117.76 222.33C124.26 222.33 127.6 215.33 131.13 207.9C134.77 200.25 138.53 192.33 146.3 192.33C154.07 192.33 157.83 200.25 161.47 207.9C165 215.32 168.33 222.33 174.84 222.33C181.35 222.33 184.68 215.33 188.21 207.9C191.85 200.25 195.61 192.33 203.38 192.33C211.15 192.33 214.91 200.25 218.56 207.9C222.09 215.32 225.42 222.33 231.93 222.33C238.44 222.33 241.76 215.33 245.29 207.9C248.94 200.25 252.7 192.33 260.47 192.33C268.24 192.33 272 200.25 275.65 207.9C279.18 215.32 282.51 222.33 289.01 222.33C295.51 222.33 298.86 215.33 302.39 207.9C306.03 200.25 309.79 192.33 317.56 192.33C325.33 192.33 329.1 200.25 332.74 207.9C336.27 215.32 339.61 222.33 346.11 222.33V224.33Z" fill="#E0E4CF"/>
<path d="M250 427.56C357.083 427.56 443.89 422.492 443.89 416.24C443.89 409.988 357.083 404.92 250 404.92C142.918 404.92 56.1101 409.988 56.1101 416.24C56.1101 422.492 142.918 427.56 250 427.56Z" fill="#E0E4CF"/>
<path d="M313 109.94H259.7C257.822 109.94 255.988 110.506 254.436 111.564C252.884 112.622 251.687 114.122 251 115.87L246.25 127.87H326.46L321.71 115.87C321.022 114.121 319.824 112.619 318.27 111.561C316.716 110.503 314.88 109.938 313 109.94V109.94Z" fill="#606C38"/>
<path opacity="0.4" d="M313 109.94H259.7C257.822 109.94 255.988 110.506 254.436 111.564C252.884 112.622 251.687 114.122 251 115.87L246.25 127.87H326.46L321.71 115.87C321.022 114.121 319.824 112.619 318.27 111.561C316.716 110.503 314.88 109.938 313 109.94V109.94Z" fill="white"/>
<path d="M161.68 109.94H108.38C106.501 109.94 104.665 110.505 103.111 111.563C101.558 112.621 100.359 114.121 99.6702 115.87L94.9202 127.87H175.14L170.39 115.87C169.701 114.121 168.502 112.621 166.949 111.563C165.395 110.505 163.56 109.94 161.68 109.94V109.94Z" fill="#606C38"/>
<path opacity="0.2" d="M161.68 109.94H108.38C106.501 109.94 104.665 110.505 103.111 111.563C101.558 112.621 100.359 114.121 99.6702 115.87L94.9202 127.87H175.14L170.39 115.87C169.701 114.121 168.502 112.621 166.949 111.563C165.395 110.505 163.56 109.94 161.68 109.94V109.94Z" fill="black"/>
<path d="M406.73 126.55H250.28L246.06 115.87C245.37 114.122 244.171 112.622 242.618 111.565C241.064 110.507 239.229 109.941 237.35 109.94H184.05C182.17 109.938 180.334 110.503 178.78 111.561C177.226 112.619 176.028 114.121 175.34 115.87L171.12 126.55H93.2701C90.3735 126.566 87.6 127.723 85.5517 129.772C83.5035 131.82 82.3458 134.593 82.3301 137.49V346.21C82.3458 349.107 83.5035 351.88 85.5517 353.928C87.6 355.977 90.3735 357.134 93.2701 357.15H406.73C409.627 357.134 412.4 355.977 414.448 353.928C416.497 351.88 417.654 349.107 417.67 346.21V137.49C417.654 134.593 416.497 131.82 414.448 129.772C412.4 127.723 409.627 126.566 406.73 126.55Z" fill="#606C38"/>
<path d="M410.67 346.42V158.08C410.67 156.02 409 154.35 406.94 154.35L93.0699 154.35C91.0099 154.35 89.3399 156.02 89.3399 158.08V346.42C89.3399 348.48 91.0099 350.15 93.0699 350.15H406.94C409 350.15 410.67 348.48 410.67 346.42Z" fill="white"/>
<path d="M253.46 206.13H199.79V222.04H253.46V206.13Z" fill="#606C38"/>
<path d="M300.21 206.13H262.54V222.04H300.21V206.13Z" fill="#606C38"/>
<path d="M79.8301 194.72H78.8301V214.09H79.8301V194.72Z" fill="#606C38"/>
<path d="M79.8301 221.44H78.8301V228.55H79.8301V221.44Z" fill="#606C38"/>
<path d="M135.04 160.86H117.99V164.66H135.04V160.86Z" fill="#606C38"/>
<path d="M113.26 160.86H96.21V164.66H113.26V160.86Z" fill="#606C38"/>
<path d="M332.5 266.68H167.5V236.32H332.5V266.68ZM168.5 265.68H331.5V237.32H168.5V265.68Z" fill="#606C38"/>
<path d="M174.17 243.91H173.17V259.1H174.17V243.91Z" fill="#606C38"/>
<path d="M292.78 276.35H207.22V280.15H292.78V276.35Z" fill="#606C38"/>
<path d="M314.08 257.29C312.866 257.291 311.671 256.993 310.6 256.422C309.529 255.85 308.615 255.024 307.94 254.015C307.265 253.006 306.849 251.846 306.729 250.639C306.609 249.431 306.789 248.212 307.253 247.09C307.717 245.968 308.45 244.978 309.388 244.208C310.326 243.437 311.44 242.91 312.63 242.672C313.82 242.435 315.051 242.495 316.213 242.847C317.374 243.199 318.431 243.832 319.29 244.69V244.69C320.322 245.722 321.025 247.036 321.311 248.467C321.596 249.898 321.451 251.382 320.893 252.73C320.335 254.079 319.391 255.231 318.178 256.043C316.965 256.855 315.539 257.289 314.08 257.29ZM314.08 244.53C312.835 244.528 311.628 244.958 310.665 245.746C309.701 246.534 309.041 247.632 308.796 248.853C308.552 250.073 308.738 251.341 309.323 252.439C309.908 253.538 310.857 254.4 312.006 254.878C313.155 255.356 314.435 255.42 315.627 255.06C316.818 254.701 317.848 253.939 318.541 252.904C319.234 251.87 319.547 250.628 319.426 249.389C319.306 248.15 318.759 246.991 317.88 246.11C316.873 245.101 315.506 244.532 314.08 244.53V244.53Z" fill="#606C38"/>
<path d="M323.64 260.47C323.508 260.471 323.378 260.445 323.256 260.396C323.134 260.346 323.023 260.273 322.93 260.18L317.88 255.13C317.692 254.942 317.586 254.686 317.586 254.42C317.586 254.154 317.692 253.898 317.88 253.71C318.068 253.522 318.324 253.416 318.59 253.416C318.856 253.416 319.112 253.522 319.3 253.71L324.35 258.77C324.536 258.957 324.641 259.211 324.641 259.475C324.641 259.739 324.536 259.992 324.35 260.18C324.257 260.273 324.146 260.346 324.024 260.396C323.902 260.445 323.772 260.471 323.64 260.47Z" fill="#606C38"/>
<path opacity="0.6" d="M332.5 266.68H167.5V236.32H332.5V266.68ZM168.5 265.68H331.5V237.32H168.5V265.68Z" fill="white"/>
<path opacity="0.6" d="M174.17 243.91H173.17V259.1H174.17V243.91Z" fill="white"/>
<path opacity="0.6" d="M292.78 276.35H207.22V280.15H292.78V276.35Z" fill="white"/>
<path opacity="0.6" d="M135.04 160.86H117.99V164.66H135.04V160.86Z" fill="white"/>
<path opacity="0.6" d="M113.26 160.86H96.21V164.66H113.26V160.86Z" fill="white"/>
<g opacity="0.6">
<path opacity="0.6" d="M314.08 257.29C312.866 257.291 311.671 256.993 310.6 256.422C309.529 255.85 308.615 255.024 307.94 254.015C307.265 253.006 306.849 251.846 306.729 250.639C306.609 249.431 306.789 248.212 307.253 247.09C307.717 245.968 308.45 244.978 309.388 244.208C310.326 243.437 311.44 242.91 312.63 242.672C313.82 242.435 315.051 242.495 316.213 242.847C317.374 243.199 318.431 243.832 319.29 244.69V244.69C320.322 245.722 321.025 247.036 321.311 248.467C321.596 249.898 321.451 251.382 320.893 252.73C320.335 254.079 319.391 255.231 318.178 256.043C316.965 256.855 315.539 257.289 314.08 257.29ZM314.08 244.53C312.835 244.528 311.628 244.958 310.665 245.746C309.701 246.534 309.041 247.632 308.796 248.853C308.552 250.073 308.738 251.341 309.323 252.439C309.908 253.538 310.857 254.4 312.006 254.878C313.155 255.356 314.435 255.42 315.627 255.06C316.818 254.701 317.848 253.939 318.541 252.904C319.234 251.87 319.547 250.628 319.426 249.389C319.306 248.15 318.759 246.991 317.88 246.11C316.873 245.101 315.506 244.532 314.08 244.53V244.53Z" fill="white"/>
<path opacity="0.6" d="M323.64 260.47C323.508 260.471 323.378 260.446 323.256 260.396C323.134 260.346 323.023 260.273 322.93 260.18L317.88 255.13C317.692 254.942 317.586 254.686 317.586 254.42C317.586 254.154 317.692 253.898 317.88 253.71C318.068 253.522 318.324 253.416 318.59 253.416C318.856 253.416 319.112 253.522 319.3 253.71L324.35 258.77C324.536 258.957 324.641 259.211 324.641 259.475C324.641 259.739 324.536 259.993 324.35 260.18C324.257 260.273 324.146 260.346 324.024 260.396C323.902 260.446 323.772 260.471 323.64 260.47Z" fill="white"/>
</g>
<path d="M367.36 148.07C366.36 153.07 364.36 163.07 367.81 166.42C367.81 166.42 366.46 171.42 357.22 171.42C347.06 171.42 352.37 166.42 352.37 166.42C357.91 165.1 357.77 160.99 356.8 157.12L367.36 148.07Z" fill="#E4897B"/>
<path d="M351.79 168.05C350.42 168.25 351.69 165.12 352.26 164.79C353.57 164.01 370.26 162.44 370.07 164.2C369.957 165.242 369.499 166.217 368.77 166.97C368 167.5 363.8 166.12 351.79 168.05Z" fill="#606C38"/>
<path opacity="0.6" d="M351.79 168.05C350.42 168.25 351.69 165.12 352.26 164.79C353.57 164.01 370.26 162.44 370.07 164.2C369.957 165.242 369.499 166.217 368.77 166.97C368 167.5 363.8 166.12 351.79 168.05Z" fill="white"/>
<path d="M386 178.07C386.52 180.07 387.09 182.27 387.71 184.37C388.33 186.47 388.92 188.63 389.57 190.75C390.22 192.87 390.88 195.01 391.57 197.12L392.57 200.3L392.83 201.09L392.93 201.37C392.946 201.428 392.966 201.485 392.99 201.54C393.112 201.827 393.266 202.099 393.45 202.35C394.559 203.775 395.914 204.991 397.45 205.94C399.214 207.103 401.055 208.145 402.96 209.06C406.926 210.968 410.992 212.66 415.14 214.13L414.14 218.26C409.499 217.556 404.933 216.425 400.5 214.88C398.208 214.08 395.978 213.111 393.83 211.98C391.397 210.728 389.22 209.032 387.41 206.98C386.884 206.346 386.425 205.659 386.04 204.93C385.93 204.74 385.84 204.54 385.74 204.33L385.53 203.82L385.19 203.02C384.74 201.96 384.29 200.9 383.87 199.82C383.03 197.67 382.19 195.52 381.45 193.33C380.71 191.14 379.97 188.95 379.3 186.73L378.36 183.37C378.05 182.22 377.79 181.14 377.52 179.88L386 178.07Z" fill="#E4897B"/>
<path d="M389.46 181.61L381.05 188.31L376 192.31C376 192.31 375.47 190.9 374.83 188.88C373.61 184.98 372.02 178.8 373.12 175.96C374.85 171.46 378.12 167.4 382.26 168.3C385.74 169.09 389.46 181.61 389.46 181.61Z" fill="#606C38"/>
<path opacity="0.2" d="M389.46 181.61L381.05 188.31L376 192.31C376 192.31 375.47 190.9 374.83 188.88C373.61 184.98 372.02 178.8 373.12 175.96C374.85 171.46 378.12 167.4 382.26 168.3C385.74 169.09 389.46 181.61 389.46 181.61Z" fill="white"/>
<path opacity="0.1" d="M381.05 188.31L376 192.31C376 192.31 375.47 190.9 374.83 188.88L377.83 174.03L381.05 188.31Z" fill="black"/>
<path d="M338.21 168.57C338.21 168.57 334.21 169.97 342.21 219.12H376.21C375.64 205.28 375.62 196.74 382.21 168.32C377.446 167.337 372.616 166.702 367.76 166.42C362.62 166.05 357.46 166.05 352.32 166.42C345.73 167 338.21 168.57 338.21 168.57Z" fill="#606C38"/>
<path opacity="0.2" d="M338.21 168.57C338.21 168.57 334.21 169.97 342.21 219.12H376.21C375.64 205.28 375.62 196.74 382.21 168.32C377.446 167.337 372.616 166.702 367.76 166.42C362.62 166.05 357.46 166.05 352.32 166.42C345.73 167 338.21 168.57 338.21 168.57Z" fill="white"/>
<path d="M420.27 220.29L417.67 225.59L415.95 220L419.75 214.77L420.27 220.29Z" fill="#E4897B"/>
<path d="M322.67 407.63L314.51 405.74L318.33 386.71L326.49 388.6L322.67 407.63Z" fill="#E4897B"/>
<path d="M377.84 407.69H369.46L370.12 388.29H378.5L377.84 407.69Z" fill="#E4897B"/>
<path d="M318.33 386.72L316.28 396.91L324.52 398.41L326.5 388.61L318.33 386.72Z" fill="#CE6F64"/>
<path d="M378.5 388.29H370.12L369.79 398.29H378.17L378.5 388.29Z" fill="#CE6F64"/>
<path d="M342.21 219.12C342.21 219.12 332.77 283.62 329.45 308.96C326 335.31 315.92 394.39 315.92 394.39L327.11 396.1C327.11 396.1 344.82 339.75 349.75 314.1C355.13 286.15 367.12 219.1 367.12 219.1L342.21 219.12Z" fill="#606C38"/>
<path opacity="0.7" d="M342.21 219.12C342.21 219.12 332.77 283.62 329.45 308.96C326 335.31 315.92 394.39 315.92 394.39L327.11 396.1C327.11 396.1 344.82 339.75 349.75 314.1C355.13 286.15 367.12 219.1 367.12 219.1L342.21 219.12Z" fill="#BC6C25"/>
<path d="M351.19 219.12C351.19 219.12 356.06 276.61 361.1 309.01C365.17 335.18 368.39 396.36 368.39 396.36H379.81C379.81 396.36 385.25 337.28 383.18 311.36C377.95 245.87 387.13 234.27 376.23 219.09L351.19 219.12Z" fill="#606C38"/>
<path opacity="0.7" d="M351.19 219.12C351.19 219.12 356.06 276.61 361.1 309.01C365.17 335.18 368.39 396.36 368.39 396.36H379.81C379.81 396.36 385.25 337.28 383.18 311.36C377.95 245.87 387.13 234.27 376.23 219.09L351.19 219.12Z" fill="#BC6C25"/>
<path d="M413.85 213.83L419.75 214.77L416 220C416 220 410.22 217.91 410.45 214.44L413.85 213.83Z" fill="#E4897B"/>
<path d="M365.94 408.18C365.371 408.23 364.803 408.074 364.34 407.74C364.2 407.608 364.096 407.442 364.038 407.258C363.981 407.074 363.971 406.879 364.01 406.69C364.02 406.571 364.061 406.456 364.129 406.358C364.198 406.259 364.291 406.181 364.4 406.13C365.4 405.69 367.92 407.33 368.21 407.52C368.243 407.541 368.269 407.571 368.285 407.607C368.301 407.642 368.306 407.682 368.3 407.72C368.291 407.758 368.272 407.792 368.246 407.82C368.22 407.848 368.187 407.869 368.15 407.88C367.426 408.06 366.685 408.161 365.94 408.18V408.18ZM364.82 406.45C364.737 406.433 364.652 406.433 364.57 406.45C364.522 406.473 364.481 406.508 364.451 406.552C364.421 406.596 364.403 406.647 364.4 406.7C364.37 406.827 364.374 406.958 364.411 407.083C364.448 407.207 364.516 407.32 364.61 407.41C365.03 407.8 366.13 407.85 367.61 407.56C366.768 406.999 365.817 406.621 364.82 406.45V406.45Z" fill="#606C38"/>
<path d="M368.1 407.88C368.067 407.889 368.032 407.889 368 407.88C367.2 407.42 365.68 405.62 365.87 404.67C365.902 404.516 365.986 404.377 366.108 404.277C366.23 404.177 366.382 404.121 366.54 404.12C366.69 404.1 366.843 404.113 366.988 404.158C367.133 404.203 367.267 404.278 367.38 404.38C368.29 405.19 368.3 407.6 368.3 407.71C368.298 407.744 368.288 407.778 368.271 407.807C368.254 407.837 368.229 407.862 368.2 407.88C368.167 407.889 368.132 407.889 368.1 407.88V407.88ZM366.68 404.49H366.59C366.33 404.49 366.28 404.64 366.26 404.73C366.14 405.31 367.09 406.66 367.89 407.3C367.91 406.36 367.637 405.438 367.11 404.66C367.053 404.605 366.986 404.561 366.912 404.532C366.838 404.503 366.759 404.488 366.68 404.49V404.49Z" fill="#606C38"/>
<path d="M313.79 404.48C312.44 404.21 310.09 403.59 309.57 402.48C309.489 402.326 309.447 402.154 309.447 401.98C309.447 401.806 309.489 401.634 309.57 401.48C309.616 401.381 309.688 401.297 309.777 401.236C309.867 401.174 309.971 401.138 310.08 401.13C311.22 400.99 313.67 403.85 313.95 404.13C313.971 404.161 313.984 404.196 313.987 404.234C313.99 404.271 313.983 404.308 313.967 404.342C313.951 404.376 313.926 404.404 313.894 404.425C313.863 404.446 313.827 404.458 313.79 404.46V404.48ZM310.17 401.48H310.12C310.076 401.485 310.035 401.502 310 401.528C309.965 401.554 309.937 401.59 309.92 401.63C309.864 401.733 309.835 401.848 309.835 401.965C309.835 402.082 309.864 402.197 309.92 402.3C310.22 402.92 311.46 403.52 313.29 403.95C312.26 402.85 310.82 401.49 310.17 401.49V401.48Z" fill="#606C38"/>
<path d="M313.79 404.48C313.736 404.476 313.686 404.451 313.65 404.41C312.9 403.61 311.77 401.19 312.27 400.41C312.369 400.269 312.515 400.169 312.682 400.126C312.849 400.084 313.026 400.103 313.18 400.18C313.369 400.236 313.545 400.331 313.697 400.458C313.848 400.586 313.972 400.743 314.06 400.92C314.7 402.13 314.01 404.29 313.98 404.38C313.971 404.413 313.953 404.442 313.928 404.465C313.904 404.488 313.873 404.504 313.84 404.51L313.79 404.48ZM312.79 400.48C312.63 400.48 312.59 400.55 312.57 400.58C312.27 401.07 312.96 402.9 313.66 403.86C313.956 402.95 313.956 401.97 313.66 401.06C313.595 400.93 313.503 400.815 313.392 400.722C313.28 400.629 313.15 400.56 313.01 400.52C312.952 400.5 312.891 400.486 312.83 400.48H312.79Z" fill="#606C38"/>
<path d="M347.19 137.41C347.128 137.411 347.066 137.397 347.011 137.369C346.955 137.341 346.907 137.3 346.87 137.25C346.589 136.837 346.214 136.497 345.776 136.257C345.338 136.017 344.849 135.884 344.35 135.87C344.293 135.879 344.234 135.876 344.179 135.86C344.123 135.844 344.071 135.817 344.027 135.779C343.983 135.742 343.948 135.695 343.924 135.643C343.899 135.59 343.887 135.533 343.887 135.475C343.887 135.417 343.899 135.36 343.924 135.307C343.948 135.255 343.983 135.208 344.027 135.171C344.071 135.133 344.123 135.106 344.179 135.09C344.234 135.074 344.293 135.071 344.35 135.08C344.978 135.093 345.594 135.254 346.148 135.549C346.702 135.844 347.179 136.266 347.54 136.78C347.571 136.823 347.593 136.871 347.606 136.922C347.618 136.973 347.62 137.027 347.611 137.079C347.603 137.131 347.584 137.181 347.557 137.225C347.529 137.27 347.493 137.309 347.45 137.34C347.374 137.393 347.282 137.418 347.19 137.41V137.41Z" fill="#263238"/>
<path d="M345 142.18C344.461 143.746 343.707 145.231 342.76 146.59C343.114 146.82 343.514 146.971 343.931 147.031C344.349 147.092 344.775 147.061 345.18 146.94L345 142.18Z" fill="#DE5753"/>
<path d="M345.53 141C345.53 141.68 345.22 142.24 344.77 142.25C344.32 142.26 343.95 141.74 343.93 141.06C343.91 140.38 344.24 139.83 344.68 139.81C345.12 139.79 345.5 140.33 345.53 141Z" fill="#263238"/>
<path d="M344.88 139.84L343.24 139.44C343.24 139.44 344.12 140.67 344.88 139.84Z" fill="#263238"/>
<path d="M368.8 406.72H378.21C378.372 406.716 378.53 406.772 378.654 406.877C378.777 406.982 378.858 407.129 378.88 407.29L379.95 414.73C379.971 414.918 379.952 415.109 379.894 415.289C379.837 415.469 379.741 415.635 379.615 415.776C379.488 415.917 379.333 416.029 379.16 416.106C378.987 416.182 378.799 416.221 378.61 416.22C375.33 416.17 373.75 415.97 369.61 415.97C367.06 415.97 363.34 416.24 359.83 416.24C356.32 416.24 356.13 412.76 357.59 412.45C364.15 411.03 365.19 409.09 367.4 407.23C367.793 406.903 368.288 406.723 368.8 406.72Z" fill="#283618"/>
<path d="M314.67 403.59L323.36 407.2C323.51 407.259 323.634 407.37 323.708 407.514C323.782 407.658 323.8 407.824 323.76 407.98L321.9 415.27C321.847 415.452 321.756 415.621 321.634 415.765C321.511 415.909 321.359 416.026 321.188 416.107C321.017 416.188 320.831 416.232 320.641 416.236C320.452 416.24 320.264 416.204 320.09 416.13C317.09 414.82 315.69 414.04 311.87 412.45C309.52 411.45 304.55 409.7 301.3 408.35C298.05 407 299.22 403.72 300.69 403.99C307.29 405.21 310.43 404.4 313.18 403.53C313.668 403.374 314.196 403.396 314.67 403.59Z" fill="#283618"/>
<path d="M341.54 180C339.576 184.942 337.35 189.776 334.87 194.48C333.64 196.84 332.34 199.19 330.87 201.48C330.53 202.06 330.13 202.63 329.76 203.2C329.39 203.77 329 204.35 328.57 204.91C328.14 205.47 327.78 206.05 327.3 206.61L326.62 207.45L326.28 207.87L326.05 208.13L325.78 208.42C324.452 209.747 322.832 210.747 321.05 211.34C319.582 211.828 318.067 212.163 316.53 212.34C313.735 212.67 310.914 212.717 308.11 212.48C302.755 212.054 297.455 211.096 292.29 209.62L293.15 205.46C295.63 205.69 298.21 205.9 300.73 206C303.25 206.1 305.78 206.17 308.25 206.07C310.635 206.012 313.01 205.751 315.35 205.29C316.379 205.083 317.384 204.772 318.35 204.36C319.03 204.091 319.639 203.671 320.13 203.13L321.02 201.89C321.36 201.44 321.67 200.89 322.02 200.41C322.66 199.41 323.28 198.34 323.89 197.27C325.1 195.12 326.23 192.86 327.35 190.61C328.47 188.36 329.51 186.03 330.56 183.71C331.61 181.39 332.63 179.03 333.56 176.71L341.54 180Z" fill="#E4897B"/>
<path d="M293.61 210L285.06 208.53L288.62 202.28C288.62 202.28 294.56 203.87 295.92 207.07L293.61 210Z" fill="#E4897B"/>
<path d="M279.42 206.5L281.65 202.74L288.62 202.26L285.06 208.52L279.42 206.5Z" fill="#E4897B"/>
<path d="M368.13 137.79C367.95 146.1 368.05 149.62 364.03 154.04C358.03 160.69 347.81 158.65 345.51 150.45C343.44 143.07 344.09 130.72 352.07 127.1C353.827 126.294 355.761 125.951 357.688 126.103C359.615 126.255 361.471 126.897 363.08 127.968C364.689 129.039 365.997 130.504 366.881 132.223C367.765 133.942 368.195 135.858 368.13 137.79V137.79Z" fill="#E4897B"/>
<path d="M378.13 137.64C377.39 131.64 374.46 125.74 371.19 122.84C363.31 115.84 352.73 121.44 347.51 125.72C342.05 130.2 345.81 137.3 349.15 140.86C349.204 142.134 349.399 143.399 349.73 144.63C349.21 147.91 347.02 151.16 343.95 153.78C354.34 156.78 369.55 157.03 375.17 154.94C382.43 152.25 379.5 150.13 378.13 137.64Z" fill="#263238"/>
<path d="M352.19 141.64C352.049 143.205 351.379 144.676 350.29 145.81C348.81 147.34 347.29 146.46 347.02 144.65C346.79 143.02 347.28 140.26 349.08 139.39C350.88 138.52 352.31 139.79 352.19 141.64Z" fill="#E4897B"/>
<path d="M314.27 394.43L328.61 396.87L330.24 391.46L314.89 388.83L314.27 394.43Z" fill="#BC6C25"/>
<path d="M366.82 396.58H381.37L382.13 391.48L366.74 390.96L366.82 396.58Z" fill="#BC6C25"/>
<path d="M376.74 217.13L378.27 220.13C378.39 220.37 378.11 220.61 377.72 220.61H342C341.7 220.61 341.44 220.46 341.42 220.26L341.12 217.26C341.12 217.05 341.36 216.87 341.7 216.87H376.15C376.263 216.853 376.378 216.868 376.483 216.914C376.587 216.96 376.676 217.035 376.74 217.13V217.13Z" fill="#606C38"/>
<path opacity="0.6" d="M376.74 217.13L378.27 220.13C378.39 220.37 378.11 220.61 377.72 220.61H342C341.7 220.61 341.44 220.46 341.42 220.26L341.12 217.26C341.12 217.05 341.36 216.87 341.7 216.87H376.15C376.263 216.853 376.378 216.868 376.483 216.914C376.587 216.96 376.676 217.035 376.74 217.13V217.13Z" fill="white"/>
<path d="M372.11 221H373C373.18 221 373.32 220.9 373.31 220.79L372.87 216.79C372.87 216.67 372.7 216.58 372.52 216.58H371.59C371.41 216.58 371.27 216.67 371.28 216.79L371.72 220.79C371.77 220.88 371.93 221 372.11 221Z" fill="#606C38"/>
<path d="M349.75 221H350.67C350.85 221 351 220.9 350.98 220.79L350.55 216.79C350.55 216.67 350.38 216.58 350.19 216.58H349.27C349.09 216.58 348.95 216.67 348.96 216.79L349.39 220.79C349.4 220.88 349.56 221 349.75 221Z" fill="#606C38"/>
<path opacity="0.7" d="M372.11 221H373C373.18 221 373.32 220.9 373.31 220.79L372.87 216.79C372.87 216.67 372.7 216.58 372.52 216.58H371.59C371.41 216.58 371.27 216.67 371.28 216.79L371.72 220.79C371.77 220.88 371.93 221 372.11 221Z" fill="#BC6C25"/>
<path opacity="0.7" d="M349.75 221H350.67C350.85 221 351 220.9 350.98 220.79L350.55 216.79C350.55 216.67 350.38 216.58 350.19 216.58H349.27C349.09 216.58 348.95 216.67 348.96 216.79L349.39 220.79C349.4 220.88 349.56 221 349.75 221Z" fill="#BC6C25"/>
<path d="M338.21 168.57C334.04 169.57 328.92 181.01 328.92 181.01L338.83 193.71C338.83 193.71 349.07 179.22 347.7 174.8C346.28 170.19 343.26 167.34 338.21 168.57Z" fill="#606C38"/>
<path opacity="0.2" d="M338.21 168.57C334.04 169.57 328.92 181.01 328.92 181.01L338.83 193.71C338.83 193.71 349.07 179.22 347.7 174.8C346.28 170.19 343.26 167.34 338.21 168.57Z" fill="white"/>
</svg>

