<svg width="651" height="393" viewBox="0 0 651 393" fill="none" xmlns="http://www.w3.org/2000/svg">
<path d="M263.224 61.4684C257.743 59.9025 250.299 72.8273 228.756 117.092C227.291 120.068 225.958 122.863 224.711 125.519C245.871 102.859 254.576 88.2686 261.666 76.3501C267.147 67.3425 266.361 62.2504 263.229 61.4666" fill="#1450C9"/>
<path d="M562.87 124.533C561.69 119.835 556.607 115.917 549.554 115.917C540.156 115.917 528.011 123.749 515.875 143.337C504.511 161.35 506.075 176.239 512.349 178.198C519.204 180.256 541.071 165.794 562.978 124.833C562.948 124.729 562.9 124.649 562.872 124.533" fill="#1450C9"/>
<path d="M598.521 177.409C585.596 195.429 562.097 211.882 546.031 206.004C540.546 204.046 535.459 198.173 535.459 192.296C535.559 187.503 536.38 182.752 537.893 178.203C518.232 197.025 506.911 201.659 500.598 199.739C493.546 197.78 487.283 193.081 486.103 181.331C485.606 177.133 485.739 172.884 486.501 168.725C467.429 190.217 456.636 195.443 448.497 193.081C441.451 191.123 437.53 184.856 437.53 177.406C437.53 165.27 478.658 111.211 471.213 111.211C466.925 111.211 439.302 124.442 409.663 174.505C407.779 178.43 406.353 182.558 405.412 186.809C404.627 190.334 401.889 192.292 398.366 191.118C390.92 189.159 387.785 182.108 387.785 175.45C387.785 172.676 390.359 166.741 394.212 159.136C374.715 183.167 359.931 192.409 350.185 189.159C344.309 186.809 339.607 181.717 339.607 174.663C339.607 171.172 344.06 162.273 349.818 151.522C330.822 171.27 311.523 184.404 297.023 187.574C294.168 188.297 291.208 188.509 288.28 188.202C288.096 188.185 287.926 188.154 287.739 188.132C287.198 188.048 286.658 187.964 286.144 187.848C285.412 187.684 284.693 187.467 283.992 187.2C281.553 186.205 279.408 184.603 277.761 182.547C276.115 180.49 275.02 178.048 274.581 175.45C273.806 171.922 275.761 167.614 280.46 168.789C294.956 172.313 312.185 159.389 321.199 141.763C330.213 124.137 330.988 110.036 324.725 108.074C316.853 105.572 290.712 134.412 270.125 171.043C258.282 194.73 243.435 224.697 240.111 234.987C239.829 236.107 239.293 237.146 238.544 238.025C237.795 238.903 236.853 239.597 235.792 240.052C234.731 240.507 233.58 240.711 232.427 240.648C231.274 240.586 230.151 240.258 229.145 239.69C223.276 236.944 218.961 232.245 218.961 224.412C218.961 217.434 238.588 187.04 254.277 157.127C226.167 192.828 206.059 199.357 197.422 195.031C194.457 193.555 191.924 191.337 190.07 188.592C188.216 185.847 187.105 182.669 186.844 179.368C186.768 177.482 186.828 175.594 187.024 173.718C166.265 199.935 148.502 206.51 138.661 201.298C133.571 198.559 129.657 193.464 129.657 187.982C129.657 181.978 132.017 174.793 135.173 167.144C104.057 201.31 81.5364 213.289 62.2823 204.824C45.4436 197.386 35.6508 166.832 56.4067 128.054C82.2631 79.8744 139.447 53.2394 178.621 65.7748C192.328 70.0831 198.987 79.4834 198.987 84.9665C198.987 92.0172 191.939 95.5451 188.015 91.6228C184.886 88.4922 180.188 86.1436 173.92 84.5771C138.275 75.1734 98.7174 100.635 81.481 133.146C66.9852 160.958 71.6847 177.8 81.09 181.326C95.1846 186.809 126.528 164.481 159.428 105.727C162.954 99.0679 165.304 97.1075 168.83 97.1075C173.922 97.1075 180.583 105.336 180.583 112.783C180.583 118.659 169.614 133.934 161.781 150.776C153.555 168.796 153.161 173.495 158.646 175.457C163.723 177.269 174.867 169.305 197.004 140.758C201.287 130.193 206.744 117.798 213.094 102.992C234.637 52.8517 252.652 34.0528 269.494 38.3627C284.384 42.2766 287.122 57.9455 276.152 77.9243C265.601 97.0806 248.012 120.923 213.668 152.952C210.068 165.393 212.32 169.322 216.616 170.756C221.842 172.625 253.771 151.684 276.761 107.29C279.626 99.8736 282.116 92.6998 283.992 86.1481C285.172 82.2342 288.296 81.0594 292.214 82.2343C295.243 83.7319 297.819 86.0084 299.678 88.8304C301.537 91.6524 302.612 94.9181 302.792 98.2925C302.792 100.342 299.239 108.947 293.915 120.801C310.083 100.575 325.911 86.4667 334.516 88.8939C349.794 93.1988 356.453 112.785 340.395 144.905C339.691 146.307 338.964 147.602 338.253 148.921C351.897 136.935 364.567 122.037 372.215 108.424C374.317 104.316 375.992 100.003 377.21 95.5518C377.995 92.024 379.953 90.4564 383.867 92.0239C390.137 94.768 394.837 99.0763 394.837 106.907C394.837 111.999 386.615 123.753 379.563 137.463C371.728 151.959 363.509 164.095 368.202 166.455C372.052 168.378 401.554 144.573 421.163 103.661C422.588 99.9662 423.67 96.853 424.219 94.773C425.399 90.8558 427.742 89.29 431.656 90.8559C437.93 93.2055 442.238 97.5171 442.238 103.39C442.238 106.703 438.792 114.464 434.263 123.795C454.546 101.303 474.897 91.2469 481.405 91.2469C489.236 91.2469 497.081 99.0831 497.081 108.483C497.081 115.145 460.257 167.237 464.17 169.59C467.493 171.577 478.085 162.912 499.768 135.542C500.42 134.49 501.077 133.435 501.777 132.373C516.273 111.222 531.552 99.078 549.567 99.078C553.751 99.0323 557.861 100.182 561.414 102.391C564.967 104.601 567.816 107.779 569.625 111.551C570.514 109.653 571.397 107.723 572.275 105.736C573.846 102.21 576.59 99.4691 581.291 101.424C585.992 103.38 590.299 109.65 589.911 114.352C589.513 119.443 571.501 148.822 565.233 160.575C558.571 173.497 557.004 183.292 562.101 185.643C567.198 187.994 577.377 180.94 589.513 166.448C591.873 163.705 594.611 162.531 596.96 164.098C598.784 165.755 599.947 168.016 600.234 170.463C600.522 172.911 599.915 175.379 598.524 177.414L598.521 177.409ZM462.215 320.78L439.883 312.943L425.002 302.369L417.558 317.256L386.617 285.133L370.563 273.774L356.456 242.436L340.003 225.206L328.251 221.678L341.567 242.436L335.697 257.326L340.003 275.734L332.165 281.608L341.567 289.053L341.958 300.023L325.507 287.489L318.856 292.578L353.711 319.998L363.511 338.799L312.188 298.061L305.931 303.546L367.029 351.724L355.671 353.682L299.271 309.814L292.997 315.69L343.528 354.86L330.605 355.643L282.03 317.259L259.704 310.987L316.894 355.641L302.01 354.461L244.04 309.024L235.809 313.725L284.388 351.717L266.76 348.192L222.89 313.723L219.749 322.732L246.001 343.099C215.049 333.307 195.082 323.904 174.702 314.107L183.713 310.193L200.549 314.891L221.313 298.046L238.546 300.405L278.502 275.334L289.862 248.31L306.703 236.948L314.143 221.673L325.109 211.489L345.088 216.976L365.064 237.342L381.521 267.896L394.051 276.511L410.11 293.353L423.426 289.045L444.187 304.323L475.522 314.503L462.215 320.78ZM397.588 49.3306C405.416 47.7631 419.13 55.9919 419.13 63.0392C419.13 73.2267 402.675 82.627 395.622 79.0974C388.573 76.7478 389.366 53.2478 397.588 49.3306V49.3306ZM325.109 0.368652C97.1415 0.368652 0 73.6177 0 169.972C0 273.383 191.541 392.851 325.5 392.851C459.068 392.851 651 273.383 651 169.972C651 73.6177 553.083 0.368652 325.109 0.368652Z" fill="#1450C9"/>
</svg>
