<svg xmlns="http://www.w3.org/2000/svg" xmlns:xlink="http://www.w3.org/1999/xlink" width="500" height="500" viewBox="0 0 500 500">
  <defs>
    <clipPath id="clip-Logo_alpina">
      <rect width="500" height="500"/>
    </clipPath>
  </defs>
  <g id="Logo_alpina" clip-path="url(#clip-Logo_alpina)">
    <g id="Grupo_12173" data-name="Grupo 12173" transform="translate(5579.738 803.146)">
      <path id="Trazado_25124" data-name="Trazado 25124" d="M-5422.71-648.907c-3.252-.929-7.668,6.739-20.449,33-.869,1.766-1.66,3.424-2.4,5,12.554-13.444,17.718-22.1,21.924-29.171,3.252-5.344,2.786-8.365.928-8.83" transform="translate(56.224 15.258)" fill="#1450c9"/>
      <path id="Trazado_25125" data-name="Trazado 25125" d="M-5315.692-625.147c-.7-2.787-3.716-5.112-7.9-5.112-5.576,0-12.781,4.647-19.981,16.268-6.742,10.687-5.814,19.52-2.092,20.682,4.067,1.221,17.04-7.359,30.037-31.66-.018-.062-.046-.109-.063-.178" transform="translate(126.979 28.913)" fill="#1450c9"/>
      <path id="Trazado_25126" data-name="Trazado 25126" d="M-5167.563-564.864c-7.668,10.691-21.609,20.452-31.141,16.965-3.254-1.162-6.272-4.646-6.272-8.133a28.374,28.374,0,0,1,1.444-8.361c-11.664,11.167-18.381,13.916-22.126,12.777-4.184-1.162-7.9-3.95-8.6-10.921a25.115,25.115,0,0,1,.236-7.479c-11.315,12.751-17.718,15.851-22.547,14.45-4.18-1.162-6.506-4.88-6.506-9.3,0-7.2,24.4-39.272,19.983-39.272-2.544,0-18.932,7.85-36.516,37.551a33.709,33.709,0,0,0-2.522,7.3c-.466,2.091-2.09,3.253-4.18,2.556-4.418-1.162-6.278-5.345-6.278-9.295,0-1.646,1.527-5.167,3.813-9.679-11.567,14.257-20.338,19.74-26.12,17.812-3.486-1.394-6.276-4.415-6.276-8.6,0-2.071,2.642-7.351,6.058-13.729-11.27,11.716-22.719,19.508-31.322,21.389a14.833,14.833,0,0,1-5.187.372c-.109-.01-.21-.028-.321-.041-.321-.05-.641-.1-.946-.169a9.289,9.289,0,0,1-1.277-.384,9.182,9.182,0,0,1-5.583-6.971c-.46-2.093.7-4.649,3.488-3.952,8.6,2.091,18.821-5.577,24.169-16.034s5.808-18.823,2.092-19.987c-4.67-1.484-20.179,15.626-32.393,37.358-7.026,14.053-15.834,31.832-17.806,37.937a4.452,4.452,0,0,1-6.506,2.79c-3.482-1.629-6.042-4.417-6.042-9.064,0-4.14,11.644-22.172,20.952-39.919-16.677,21.181-28.607,25.054-33.731,22.488a11.385,11.385,0,0,1-6.276-9.293,23.3,23.3,0,0,1,.107-3.352c-12.316,15.554-22.854,19.455-28.692,16.363-3.02-1.625-5.342-4.648-5.342-7.9,0-3.562,1.4-7.825,3.272-12.363-18.46,20.27-31.821,27.377-43.244,22.355-9.99-4.413-15.8-22.54-3.486-45.546,15.34-28.584,49.266-44.386,72.507-36.949,8.132,2.556,12.083,8.133,12.083,11.386,0,4.183-4.182,6.276-6.51,3.949q-2.784-2.786-8.362-4.18c-21.147-5.579-44.616,9.527-54.842,28.815-8.6,16.5-5.812,26.492-.232,28.584,8.362,3.253,26.957-9.994,46.476-44.851,2.092-3.951,3.486-5.114,5.578-5.114,3.021,0,6.973,4.882,6.973,9.3,0,3.486-6.508,12.548-11.155,22.54-4.88,10.691-5.114,13.479-1.86,14.643,3.012,1.075,9.624-3.65,22.757-20.586,2.541-6.268,5.779-13.622,9.546-22.406,12.781-29.747,23.469-40.9,33.461-38.343,8.834,2.322,10.458,11.618,3.95,23.471-6.26,11.365-16.695,25.51-37.07,44.512-2.136,7.381-.8,9.712,1.749,10.563,3.1,1.109,22.043-11.315,35.682-37.653,1.7-4.4,3.177-8.656,4.29-12.543.7-2.322,2.554-3.019,4.878-2.322a11.3,11.3,0,0,1,6.276,9.527c0,1.216-2.108,6.321-5.267,13.354,9.592-12,18.983-20.37,24.088-18.93,9.064,2.554,13.015,14.174,3.488,33.23-.418.832-.849,1.6-1.271,2.383,8.095-7.111,15.612-15.95,20.149-24.026a39.858,39.858,0,0,0,2.963-7.637c.466-2.093,1.628-3.023,3.95-2.093,3.72,1.628,6.508,4.184,6.508,8.83,0,3.021-4.878,9.994-9.062,18.128-4.648,8.6-9.524,15.8-6.74,17.2,2.284,1.141,19.787-12.982,31.421-37.254.845-2.192,1.487-4.039,1.813-5.273.7-2.324,2.09-3.253,4.412-2.324,3.722,1.394,6.278,3.952,6.278,7.436,0,1.966-2.044,6.57-4.731,12.106,12.033-13.344,24.107-19.31,27.968-19.31,4.646,0,9.3,4.649,9.3,10.226,0,3.952-21.847,34.857-19.525,36.253,1.971,1.179,8.255-3.962,21.119-20.2.387-.624.777-1.25,1.192-1.88,8.6-12.548,17.665-19.753,28.353-19.753a13.04,13.04,0,0,1,11.9,7.4c.527-1.126,1.051-2.271,1.572-3.45.932-2.092,2.56-3.718,5.349-2.558s5.344,4.88,5.114,7.67c-.236,3.02-10.922,20.45-14.641,27.423-3.952,7.666-4.882,13.477-1.858,14.872s9.063-2.79,16.263-11.388c1.4-1.627,3.024-2.324,4.418-1.394a6.056,6.056,0,0,1,.928,7.9m-80.869,85.056-13.249-4.65-8.829-6.273-4.416,8.832-18.357-19.058-9.524-6.739-8.37-18.592-9.761-10.222-6.972-2.093,7.9,12.315-3.482,8.834,2.554,10.921-4.65,3.485,5.578,4.417.232,6.508-9.76-7.436-3.946,3.019,20.679,16.268,5.814,11.154-30.449-24.169-3.712,3.254,36.248,28.583-6.738,1.162-33.461-26.026-3.722,3.486,29.979,23.239-7.667.464-28.819-22.772-13.245-3.721,33.929,26.492-8.83-.7-34.392-26.957-4.884,2.789,28.821,22.54-10.458-2.091-26.027-20.45-1.864,5.345,15.575,12.083c-18.363-5.809-30.209-11.388-42.3-17.2l5.346-2.322,9.988,2.787,12.319-9.994,10.224,1.4,23.705-14.874,6.74-16.033,9.991-6.741,4.414-9.062,6.506-6.042,11.853,3.255,11.851,12.083,9.764,18.127,7.434,5.111,9.527,9.992,7.9-2.556,12.317,9.064,18.591,6.04Zm-38.342-161.045c4.644-.93,12.781,3.952,12.781,8.133,0,6.044-9.763,11.621-13.947,9.527-4.182-1.394-3.712-15.336,1.166-17.66m-43-29.048c-135.248,0-192.88,43.457-192.88,100.622,0,61.351,113.637,132.229,193.112,132.229,79.243,0,193.112-70.878,193.112-132.229,0-57.165-58.092-100.622-193.344-100.622" transform="translate(0.001 0)" fill="#1450c9"/>
    </g>
  </g>
</svg>
